<svg version="1.1" id="Layer_1" xmlns="http://www.w3.org/2000/svg" xmlns:xlink="http://www.w3.org/1999/xlink" x="0px" y="0px"
	 viewBox="0 0 586.9 376.9" style="enable-background:new 0 0 586.9 376.9;" xml:space="preserve" width="150px">
<style type="text/css">
	.st0{fill:#4A4B4C;}
	.st1{fill:#F47521;}
</style>
<g>
	<g>
		<path class="st0" d="M268.6,172h3.2c0.2,0,0.5,0.1,0.6,0.3l14.7,32.3c0.1,0.3,0,0.6-0.3,0.6h-6.6c-0.2,0-0.5-0.1-0.6-0.3l-2.1-4.4
			c-0.1-0.2-0.3-0.3-0.5-0.3h-13.5c-0.2,0-0.5,0.1-0.6,0.3l-2.1,4.4c-0.1,0.2-0.3,0.3-0.5,0.3h-6.6c-0.3,0-0.5-0.2-0.3-0.6
			l14.8-32.3C268.2,172.1,268.4,172,268.6,172z M266.7,193.1h7c0.3,0,0.5-0.2,0.3-0.6l-3.5-7.9c-0.1-0.3-0.5-0.3-0.6,0l-3.5,7.9
			C266.2,192.9,266.3,193.1,266.7,193.1z"/>
		<path class="st0" d="M313.2,181.1v23.7c0,0.2-0.1,0.4-0.4,0.4h-6.7c-0.2,0-0.4-0.1-0.4-0.4V202c0-0.3-0.2-0.4-0.4-0.1
			c-1.6,1.9-4.6,3.5-7.5,3.5c-5.6,0-9.3-2.8-9.3-10.6v-13.7c0-0.2,0.1-0.4,0.4-0.4h6.7c0.2,0,0.4,0.1,0.4,0.4v13.2
			c0,3.6,1.8,5.3,4.7,5.3c2.6,0,4.6-2.1,5.1-4.8v-13.7c0-0.2,0.1-0.4,0.4-0.4h6.7C313.1,180.7,313.2,180.8,313.2,181.1z"/>
		<path class="st0" d="M332.3,203.8c-1.3,0.9-3.8,1.5-6.8,1.5c-5.8,0-6.6-4.5-6.6-10.2v-8.2c0-0.2-0.1-0.4-0.4-0.4h-2.7
			c-0.2,0-0.4-0.1-0.4-0.4v-5.1c0-0.2,0.1-0.4,0.4-0.4h2.7c0.2,0,0.4-0.1,0.4-0.4v-5.2c0-0.2,0.1-0.4,0.3-0.4l6.7-0.8
			c0.2,0,0.4,0.1,0.4,0.4v6c0,0.2,0.1,0.4,0.4,0.4h5.1c0.2,0,0.4,0.1,0.4,0.4v5.1c0,0.2-0.1,0.4-0.4,0.4h-5.1
			c-0.2,0-0.4,0.1-0.4,0.4v8.2c0,2.6,0.3,4.4,2.4,4.4c1,0,1.7-0.1,2.4-0.4c0.3-0.1,0.4-0.2,0.5,0.1l0.8,4
			C332.5,203.6,332.4,203.7,332.3,203.8z"/>
		<path class="st0" d="M333.4,192.9c0-6.8,5.1-12.4,12.8-12.4c7.8,0,12.9,5.5,12.9,12.4c0,6.8-5.1,12.4-12.9,12.4
			C338.4,205.3,333.4,199.7,333.4,192.9z M340.8,192.9c0,3.7,1.9,6.6,5.4,6.6c3.5,0,5.4-2.9,5.4-6.6c0-3.7-1.9-6.6-5.4-6.6
			C342.6,186.4,340.8,189.2,340.8,192.9z"/>
		<path class="st0" d="M402,191.6v13.2c0,0.2-0.1,0.4-0.4,0.4h-6.7c-0.2,0-0.4-0.1-0.4-0.4v-13.2c0-3.5-1.4-5.3-4.3-5.3
			c-3,0-4.6,2.6-4.6,5.4v13c0,0.2-0.1,0.4-0.4,0.4h-6.7c-0.2,0-0.4-0.1-0.4-0.4v-13.2c0-3.5-1.3-5.3-4.3-5.3c-3,0-4.6,2.6-4.6,5.4
			v13c0,0.2-0.1,0.4-0.4,0.4h-6.7c-0.2,0-0.4-0.1-0.4-0.4v-23.7c0-0.2,0.1-0.4,0.4-0.4h6.7c0.2,0,0.4,0.1,0.4,0.4v2.7
			c0,0.3,0.2,0.5,0.4,0.2c1.4-1.9,3.7-3.4,6.6-3.4c4,0,6.6,1.8,8,4.7c0.1,0.3,0.3,0.3,0.4,0.1c1.3-2.6,4.3-4.9,7.9-4.9
			C399.1,180.6,401.7,185.2,402,191.6z"/>
		<path class="st0" d="M404.7,192.9c0-6.8,5.1-12.4,12.8-12.4c7.8,0,12.9,5.5,12.9,12.4c0,6.8-5.1,12.4-12.9,12.4
			C409.8,205.3,404.7,199.7,404.7,192.9z M412.2,192.9c0,3.7,1.9,6.6,5.4,6.6c3.5,0,5.4-2.9,5.4-6.6c0-3.7-1.9-6.6-5.4-6.6
			C414,186.4,412.2,189.2,412.2,192.9z"/>
		<path class="st0" d="M448.1,203.8c-1.3,0.9-3.8,1.5-6.8,1.5c-5.8,0-6.6-4.5-6.6-10.2v-8.2c0-0.2-0.1-0.4-0.4-0.4h-2.7
			c-0.2,0-0.4-0.1-0.4-0.4v-5.1c0-0.2,0.1-0.4,0.4-0.4h2.7c0.2,0,0.4-0.1,0.4-0.4v-5.2c0-0.2,0.1-0.4,0.3-0.4l6.7-0.8
			c0.2,0,0.4,0.1,0.4,0.4v6c0,0.2,0.1,0.4,0.4,0.4h5.1c0.2,0,0.4,0.1,0.4,0.4v5.1c0,0.2-0.1,0.4-0.4,0.4h-5.1
			c-0.2,0-0.4,0.1-0.4,0.4v8.2c0,2.6,0.3,4.4,2.4,4.4c1,0,1.7-0.1,2.4-0.4c0.3-0.1,0.4-0.2,0.5,0.1l0.8,4
			C448.3,203.6,448.3,203.7,448.1,203.8z"/>
		<path class="st0" d="M451.5,173.4c0-2.3,1.9-4.2,4.2-4.2c2.3,0,4.2,1.9,4.2,4.2c0,2.3-1.9,4.2-4.2,4.2
			C453.4,177.6,451.5,175.7,451.5,173.4z M452.3,180.7h6.7c0.2,0,0.4,0.1,0.4,0.4v23.7c0,0.2-0.1,0.4-0.4,0.4h-6.7
			c-0.2,0-0.4-0.1-0.4-0.4v-23.7C452,180.8,452.1,180.7,452.3,180.7z"/>
		<path class="st0" d="M477.2,205.2h-3.7c-0.2,0-0.4-0.1-0.5-0.3l-11.2-23.8c-0.1-0.2,0-0.4,0.3-0.4h6.8c0.2,0,0.4,0,0.5,0.3
			l5.7,13.6c0.1,0.3,0.3,0.3,0.5,0l5.7-13.6c0.1-0.2,0.3-0.3,0.5-0.3h6.8c0.3,0,0.4,0.2,0.3,0.4l-11.2,23.8
			C477.6,205.1,477.4,205.2,477.2,205.2z"/>
		<path class="st0" d="M511.9,194.8c0,0.2-0.1,0.4-0.4,0.4h-15.2c-0.2,0-0.3,0.1-0.3,0.4c0,2.3,2.4,4,4.4,4c2.2,0,3.4-1.1,4-2
			c0.1-0.2,0.3-0.3,0.5-0.2l6.2,0.8c0.2,0,0.4,0.2,0.3,0.4c-1.3,3.6-4.8,6.8-10.9,6.8c-8.1,0-12.4-5.5-12.4-12.4
			c0-6.8,4.6-12.4,11.9-12.4c8.1,0,11.8,6,11.8,12.2V194.8z M496,189.9c0,0.3,0.1,0.4,0.3,0.4h7.3c0.2,0,0.4-0.1,0.4-0.3
			c0-2.3-1.2-4.1-4-4.1C497.5,185.9,496,187.7,496,189.9z"/>
		<path class="st0" d="M254.2,235.8c0-0.3,0-0.6,0.5-0.7l6.5-0.8c0.4,0,0.6,0,0.6,0.3c0,3.3,3,4.5,5.7,4.5c2.8,0,4.4-1,4.4-2.8
			c0-2.6-3.9-2.9-9.3-4.7c-5.1-1.7-7.6-4.6-7.6-9.6c0-6.2,5.2-9.3,11.4-9.3c6.3,0,11.7,3.1,11.7,9.7c0,0.3-0.2,0.4-0.5,0.5l-6.5,0.8
			c-0.3,0-0.5-0.1-0.5-0.5c0-2.5-2.1-3.5-4.5-3.5c-1.5,0-3.3,0.6-3.3,2.5s2.1,2.6,6,3.7c8.7,2.5,10.9,6.4,10.9,10.9
			c0,5.8-5,9.3-12.2,9.3C261.1,246,254.2,243.6,254.2,235.8z"/>
		<path class="st0" d="M305.5,235.5c0,0.2-0.1,0.4-0.4,0.4h-15.2c-0.2,0-0.3,0.1-0.3,0.4c0,2.3,2.4,4,4.4,4c2.2,0,3.4-1.1,4-2
			c0.1-0.2,0.3-0.3,0.5-0.2l6.2,0.8c0.2,0,0.4,0.2,0.3,0.4c-1.3,3.6-4.8,6.8-10.9,6.8c-8.1,0-12.4-5.5-12.4-12.4
			c0-6.8,4.6-12.4,11.9-12.4c8.1,0,11.9,6,11.9,12.2V235.5z M289.6,230.6c0,0.3,0.1,0.4,0.3,0.4h7.3c0.2,0,0.4-0.1,0.4-0.3
			c0-2.3-1.2-4.1-4-4.1C291,226.6,289.6,228.4,289.6,230.6z"/>
		<path class="st0" d="M326.3,222.8l-1.7,6.5c0,0.2-0.2,0.3-0.5,0.2c-0.4-0.3-1.5-0.9-3-0.9c-2.1,0-5.5,0.9-5.5,6.6v10.2
			c0,0.2-0.1,0.4-0.4,0.4h-6.7c-0.2,0-0.4-0.1-0.4-0.4v-23.7c0-0.2,0.1-0.4,0.4-0.4h6.7c0.2,0,0.4,0.1,0.4,0.4v3.1
			c0,0.4,0.2,0.4,0.4,0.1c1.3-2.1,3.3-3.8,6.1-3.8c2.1,0,3.3,0.8,3.9,1.1C326.3,222.4,326.4,222.6,326.3,222.8z"/>
		<path class="st0" d="M343.2,245.9h-3.7c-0.2,0-0.4-0.1-0.5-0.3l-11.2-23.8c-0.1-0.2,0-0.4,0.3-0.4h6.8c0.2,0,0.4,0,0.5,0.3
			l5.7,13.6c0.1,0.3,0.3,0.3,0.5,0l5.7-13.6c0.1-0.2,0.3-0.3,0.5-0.3h6.8c0.3,0,0.4,0.2,0.3,0.4l-11.2,23.8
			C343.6,245.8,343.4,245.9,343.2,245.9z"/>
		<path class="st0" d="M356.9,214.2c0-2.3,1.9-4.2,4.2-4.2c2.3,0,4.2,1.9,4.2,4.2c0,2.3-1.9,4.2-4.2,4.2
			C358.8,218.4,356.9,216.4,356.9,214.2z M357.7,221.4h6.7c0.2,0,0.4,0.1,0.4,0.4v23.7c0,0.2-0.1,0.4-0.4,0.4h-6.7
			c-0.2,0-0.4-0.1-0.4-0.4v-23.7C357.3,221.6,357.5,221.4,357.7,221.4z"/>
		<path class="st0" d="M391.2,238.2c-0.5,3.2-3.9,7.9-11,7.9c-7.3,0-12.2-5.5-12.2-12.4c0-6.9,4.9-12.4,12.2-12.4
			c7.1,0,10.6,4.6,11,7.9c0,0.2,0,0.5-0.2,0.6l-6.2,0.8c-0.3,0-0.5-0.1-0.5-0.3c-0.5-1.6-1.7-3.2-4-3.2c-3.2,0-4.9,2.7-4.9,6.6
			c0,3.8,1.7,6.6,4.9,6.6c2.3,0,3.5-1.6,4-3.1c0.1-0.3,0.2-0.3,0.5-0.3l6.2,0.8C391.2,237.7,391.2,238,391.2,238.2z"/>
		<path class="st0" d="M416.8,235.5c0,0.2-0.1,0.4-0.4,0.4h-15.2c-0.2,0-0.3,0.1-0.3,0.4c0,2.3,2.4,4,4.4,4c2.2,0,3.4-1.1,4-2
			c0.1-0.2,0.3-0.3,0.5-0.2l6.2,0.8c0.2,0,0.4,0.2,0.3,0.4c-1.3,3.6-4.8,6.8-10.9,6.8c-8.1,0-12.4-5.5-12.4-12.4
			c0-6.8,4.6-12.4,11.9-12.4c8.1,0,11.8,6,11.8,12.2V235.5z M400.9,230.6c0,0.3,0.1,0.4,0.3,0.4h7.3c0.2,0,0.4-0.1,0.4-0.3
			c0-2.3-1.2-4.1-4-4.1C402.4,226.6,401,228.4,400.9,230.6z"/>
		<path class="st0" d="M276.8,253.5h7c0.3,0,0.5,0.2,0.5,0.5v32.2c0,0.3-0.2,0.5-0.5,0.5h-7c-0.3,0-0.5-0.2-0.5-0.5v-11.3
			c0-0.3-0.2-0.5-0.5-0.5H263c-0.3,0-0.5,0.2-0.5,0.5v11.3c0,0.3-0.2,0.5-0.5,0.5h-7c-0.3,0-0.5-0.2-0.5-0.5V254
			c0-0.3,0.2-0.5,0.5-0.5h7c0.3,0,0.5,0.2,0.5,0.5v13c0,0.3,0.2,0.5,0.5,0.5h12.8c0.3,0,0.5-0.2,0.5-0.5v-13
			C276.3,253.7,276.5,253.5,276.8,253.5z"/>
		<path class="st0" d="M287.4,274.4c0-6.8,5.1-12.4,12.8-12.4c7.8,0,12.9,5.5,12.9,12.4c0,6.8-5.1,12.4-12.9,12.4
			C292.5,286.8,287.4,281.2,287.4,274.4z M294.9,274.4c0,3.7,1.9,6.6,5.4,6.6s5.4-2.9,5.4-6.6s-1.9-6.6-5.4-6.6
			S294.9,270.7,294.9,274.4z"/>
		<path class="st0" d="M340.6,262.5v23.7c0,0.2-0.1,0.4-0.4,0.4h-6.7c-0.2,0-0.4-0.1-0.4-0.4v-2.8c0-0.3-0.2-0.4-0.4-0.1
			c-1.6,1.9-4.6,3.5-7.5,3.5c-5.6,0-9.3-2.8-9.3-10.6v-13.7c0-0.2,0.1-0.4,0.4-0.4h6.7c0.2,0,0.4,0.1,0.4,0.4v13.2
			c0,3.6,1.8,5.3,4.7,5.3c2.7,0,4.6-2.1,5.1-4.8v-13.7c0-0.2,0.1-0.4,0.4-0.4h6.7C340.5,262.1,340.6,262.3,340.6,262.5z"/>
		<path class="st0" d="M342.9,279.2c0-0.2,0-0.5,0.4-0.5l6.2-0.8c0.3,0,0.5,0,0.5,0.2c0,1.7,1.9,2.9,4.3,2.9c1.4,0,3.1-0.5,3.1-1.8
			c0-1.7-2.3-1.9-5.8-2.8c-5.7-1.6-7.5-4.5-7.5-7.3c0-4,3.8-7,9.6-7c6.2,0,10.4,3.6,10.4,7.3c0,0.2-0.1,0.3-0.4,0.4l-6.2,0.8
			c-0.2,0-0.4-0.1-0.4-0.4c0-1.4-1.4-2.3-3.2-2.3c-1.3,0-2.4,0.6-2.4,1.5c0,1.1,0.5,1.5,3.8,2.5c5.2,1.5,9.5,3.4,9.5,8
			c0,5-4.6,6.9-10,6.9C348.7,286.8,342.9,284.7,342.9,279.2z"/>
		<path class="st0" d="M390.4,276.3c0,0.2-0.1,0.4-0.4,0.4h-15.2c-0.2,0-0.3,0.1-0.3,0.4c0,2.3,2.4,4,4.4,4c2.2,0,3.4-1.1,4-2
			c0.1-0.2,0.3-0.3,0.5-0.2l6.2,0.8c0.2,0,0.4,0.2,0.3,0.4c-1.3,3.6-4.8,6.8-10.9,6.8c-8.1,0-12.4-5.5-12.4-12.4
			c0-6.8,4.6-12.4,11.9-12.4c8.1,0,11.9,6,11.9,12.2V276.3z M374.5,271.3c0,0.3,0.1,0.4,0.3,0.4h7.3c0.2,0,0.4-0.1,0.4-0.3
			c0-2.3-1.2-4.1-4-4.1C376,267.4,374.6,269.1,374.5,271.3z"/>
	</g>
	<g>
		<g>
			<path class="st1" d="M177.4,203.6l-9.1-19.3H99.9l-9.1,19.2c-0.6,1.3-2.2,1.9-3.6,1.3l-7.2-3.4c-1.3-0.6-1.9-2.2-1.3-3.6
				l10.1-21.3c1.3-3.3,4.8-5.6,9-5.6h72.7c4.1,0,7.5,2.2,8.9,6l9.9,20.9c0.6,1.3,0.1,2.9-1.3,3.6l-7.2,3.4
				C179.6,205.6,178,205,177.4,203.6z M167.3,182.3c0,0.1,0.1,0.2,0.1,0.3L167.3,182.3z M101.1,181.9l-0.2,0.5
				C100.9,182.3,101,182.1,101.1,181.9z M156.3,156h-44.2c-3.2,0-6-1.4-7.6-3.9c-1.7-2.5-1.9-5.8-0.5-8.9l22.3-49.6
				c1.4-3.3,4.6-5.5,8.1-5.5c3.5,0,6.7,2.2,8.2,5.6l21.9,49.4c1.4,3.2,1.2,6.4-0.5,9C162.3,154.6,159.5,156,156.3,156z M118.8,142.6
				h30.9l-15.3-34.5L118.8,142.6z M130.3,99.1C130.3,99.1,130.3,99.1,130.3,99.1L130.3,99.1z M138.5,99l-0.1,0.1
				C138.4,99.1,138.4,99,138.5,99z"/>
		</g>
		<path class="st1" d="M247.8,142.6h-13.5c-5.4,0-9.7-4.3-9.7-9.7v-13.5c0-1.5-1.2-2.7-2.7-2.7h-8c-1.5,0-2.7,1.2-2.7,2.7v13.5
			c0,5.4-4.3,9.7-9.7,9.7h-13.5c-1.5,0-2.7,1.2-2.7,2.7v8c0,1.5,1.2,2.7,2.7,2.7h13.5c5.4,0,9.7,4.3,9.7,9.7v13.5
			c0,1.5,1.2,2.7,2.7,2.7h8c1.5,0,2.7-1.2,2.7-2.7v-13.5c0-5.4,4.3-9.7,9.7-9.7h13.5c1.5,0,2.7-1.2,2.7-2.7v-8
			C250.5,143.9,249.2,142.6,247.8,142.6z"/>
	</g>
</g>
</svg>
