<svg version="1.1" id="Слой_1" xmlns="http://www.w3.org/2000/svg" xmlns:xlink="http://www.w3.org/1999/xlink" x="0px" y="0px"
	 viewBox="0 0 612 237.9" style="enable-background:new 0 0 612 237.9;" xml:space="preserve" width="300px">
<style type="text/css">
	.st0{stroke:#000000;stroke-width:3;stroke-miterlimit:10;}
</style>
<g>
	<path d="M98.7,12.8c0.2,0,0.4,0,0.7,0c0.4,0.2,0.7,0.4,1.1,0.6c22.5,13,45.1,26,67.6,39c4.5,2.6,9,5.2,13.4,7.7
		c0.8,0.5,0.8,0.7,0,1.2c-0.1,0.1-0.2,0.1-0.4,0.2c-29.2,17.9-58.4,35.8-87.7,53.7c-0.8,0.5-1.3,1.1-1.3,2.1c0,27.5,0,55.1,0,82.6
		c0,1.2,0.2,1.3,1.2,0.7c24.1-14.2,48.3-28.5,72.4-42.7c0.8-0.5,1.1-1.1,1.1-2c0-6.6,0-13.2,0-19.8c0-0.4-0.1-0.7-0.2-1.1
		c-0.3,0.1-0.7,0.3-1,0.4c-0.1,0-0.1,0.1-0.1,0.1c-17.6,10.8-35.3,21.7-52.9,32.5c-0.3,0.2-0.7,0.2-1,0.4c-0.1-0.3-0.2-0.7-0.2-1
		c0-13.1,0-26.2,0-39.3c0-1,0.3-1.6,1.2-2.1c25.8-15.2,51.5-30.5,77.3-45.7c1-0.6,1.2-0.5,1.2,0.6c0,8.2,0.1,16.5,0.1,24.7
		c0,16.9,0.1,33.8,0.1,50.7c0,2.5,0.1,4.9,0.1,7.4c0,2.6,0,5.2,0,7.8c-0.4,0.4-0.7,1-1.2,1.3c-29.7,17.4-59.5,34.8-89.2,52.2
		c-0.8,0.5-1.5,0.5-2.4,0c-13-7.5-25.9-15-38.9-22.5c-0.9-0.5-1.2-1.1-1.2-2.1c0-34.4,0-68.8,0-103.2c0-1,0.3-1.6,1.2-2.1
		C76,85.6,92.5,75.7,109,65.9c0.9-0.5,1.6-0.5,2.5-0.1c5.7,3.1,11.5,6.1,17.3,9.2c1,0.6,1.9,0.6,2.9,0c2.5-1.6,5.2-3,7.8-4.5
		c2-1.1,3.9-2.3,5.9-3.4c0.7-0.4,0.7-0.7,0-1.1c-0.1-0.1-0.3-0.2-0.4-0.3c-17.7-10.5-35.3-21-53-31.5c-4.6-2.7-9.1-5.4-13.7-8.1
		c-0.9-0.5-0.9-0.7,0-1.3c0.2-0.1,0.4-0.2,0.6-0.4C85.5,20.6,92.1,16.7,98.7,12.8z"/>
	<path d="M7.4,66.8c0.4-0.4,0.8-1,1.3-1.3c17.1-10,34.2-20,51.2-30c0.9-0.5,1.6-0.5,2.5,0C71,41,79.5,46.4,88,51.8
		c1.1,0.7,1.1,0.9,0,1.5C71.3,63.5,54.5,73.7,37.7,83.8c-1,0.6-1.4,1.3-1.4,2.5c0,33.8,0,67.6,0,101.3c0,0.4-0.2,0.9-0.2,1.3
		c-0.4-0.2-0.8-0.3-1.2-0.5c-8.7-5-17.4-10-26.1-15c-0.5-0.3-1-0.9-1.4-1.3C7.4,137,7.4,101.9,7.4,66.8z"/>
</g>
<g>
	<path class="st0" d="M225.2,92.7c13.7,0,22.9,3.4,28.7,9.2s8.1,13.9,8.1,23.1s-2.3,17.3-8.1,23.1c-5.8,5.8-15.1,9.2-28.7,9.2h-9
		c-0.4,0-0.7-0.3-0.7-0.7c0-0.4,0.3-0.7,0.7-0.7h9c13.4,0,22.3-3.4,27.8-8.8c5.5-5.5,7.7-13.2,7.7-22.1c0-8.9-2.2-16.6-7.7-22.1
		c-5.5-5.5-14.3-8.8-27.8-8.8l-9,0c-0.4,0-0.7-0.3-0.7-0.7s0.3-0.7,0.7-0.7H225.2z"/>
	<path class="st0" d="M335.2,92.7c0.4,0,0.7,0.3,0.7,0.7s-0.3,0.7-0.7,0.7H290c-0.4,0-0.7-0.3-0.7-0.7s0.3-0.7,0.7-0.7H335.2z
		 M330.7,124.4c0.4,0,0.7,0.3,0.7,0.7c0,0.4-0.3,0.7-0.7,0.7H290c-0.4,0-0.7-0.3-0.7-0.7c0-0.4,0.3-0.7,0.7-0.7H330.7z M335.2,156
		c0.4,0,0.7,0.3,0.7,0.7c0,0.4-0.3,0.7-0.7,0.7H290c-0.4,0-0.7-0.3-0.7-0.7c0-0.4,0.3-0.7,0.7-0.7H335.2z"/>
	<path class="st0" d="M416.1,101.1c0.1,0.1,0.2,0.3,0.2,0.5c0,0.4-0.3,0.7-0.7,0.7c-0.2,0-0.4-0.1-0.5-0.2c-4.7-4.6-13.2-8-24.5-8
		c-8.9,0-15.7,2.2-20.3,5.4c-4.6,3.1-6.9,7.2-6.9,10.8c0,2.3,0.8,4.1,2.2,5.6c1.4,1.5,3.4,2.8,5.9,3.9c5,2.1,11.7,3.5,18.5,4.7
		c6.8,1.3,13.6,2.6,18.8,4.8c2.6,1.1,4.8,2.4,6.4,4.2c1.6,1.7,2.5,3.9,2.5,6.4c0,5.5-3.6,10-8.8,12.9c-5.2,3-12.1,4.6-19,4.6
		c-10.8,0-21.1-2.8-28.9-8.6c-0.2-0.1-0.3-0.4-0.3-0.6c0-0.4,0.3-0.7,0.7-0.7c0.1,0,0.3,0.1,0.4,0.1c7.5,5.6,17.6,8.3,28.1,8.3
		c6.7,0,13.4-1.6,18.3-4.4c5-2.8,8.1-6.8,8.1-11.8c0-2.2-0.8-4-2.2-5.5c-1.4-1.5-3.4-2.8-5.9-3.8c-5-2.1-11.7-3.4-18.5-4.7
		c-6.8-1.3-13.6-2.6-18.8-4.8c-2.6-1.1-4.8-2.5-6.4-4.2c-1.6-1.8-2.5-3.9-2.5-6.5c0-4.2,2.7-8.6,7.5-11.9c4.9-3.3,12-5.6,21.1-5.6
		C402.2,92.7,411.1,96.2,416.1,101.1z"/>
	<path class="st0" d="M445,93.4c0-0.4,0.3-0.7,0.7-0.7c0,0,0,0,0,0c0.4,0,0.7,0.3,0.7,0.7v0v63.3v0c0,0.4-0.3,0.7-0.7,0.7
		c0,0,0,0,0,0c-0.4,0-0.7-0.3-0.7-0.7v0V93.4L445,93.4z"/>
	<path class="st0" d="M526.6,102c0.1,0.1,0.2,0.3,0.2,0.5c0,0.4-0.3,0.7-0.7,0.7c-0.2,0-0.4-0.1-0.5-0.2c-5.5-5.5-13.3-8.8-22.1-8.8
		c-17.7,0-31,13.2-31,31c0,17.7,13.2,31,31,31c8.8,0,16.4-3.3,21.9-8.7v-21.6h-31c-0.4,0-0.7-0.3-0.7-0.7c0-0.4,0.3-0.7,0.7-0.7
		h31.6c0.4,0,0.7,0.3,0.7,0.7v22.6v0c0,0.2-0.1,0.4-0.2,0.5c-5.8,5.8-13.9,9.2-23.1,9.2c-18.4,0-32.3-13.9-32.3-32.3
		s13.9-32.3,32.3-32.3C512.7,92.7,520.8,96.2,526.6,102z"/>
	<path class="st0" d="M599.9,92.7c0.4,0,0.7,0.3,0.7,0.7c0,0,0,0,0,0v63.3c0,0.4-0.3,0.7-0.7,0.7c-0.2,0-0.4-0.1-0.6-0.3l-44-61.6
		v61.2v0c0,0.4-0.3,0.7-0.7,0.7c-0.4,0-0.7-0.3-0.7-0.7v0V93.4v0c0-0.4,0.3-0.7,0.7-0.7c0.2,0,0.4,0.1,0.6,0.3l44,61.6V93.4v0
		C599.3,93,599.6,92.7,599.9,92.7C599.9,92.7,599.9,92.7,599.9,92.7z"/>
</g>
</svg>
