<svg width="133" height="50" viewBox="0 0 133 50" fill="none" xmlns="http://www.w3.org/2000/svg">
<path d="M3.66016 33.9545V32.4409C7.79439 32 8.21188 31.7771 8.21188 27.4446V7.31036C8.21188 2.93597 7.78454 2.69459 3.66016 2.26233V0.748779H17.7279V2.26233C13.5616 2.70321 13.1343 2.93597 13.1343 7.31036V27.4446C13.1343 31.8104 13.5518 31.9914 17.7279 32.4409V33.9545H3.66016Z" fill="#353435"/>
<path d="M55.9954 19.9987C52.8747 20.4261 52.6419 20.7143 52.6419 23.8103V28.0369C52.6419 29.8349 52.6936 31.5295 52.9486 32.9088C49.8821 33.5775 45.4781 34.7204 41.2146 34.7204C29.5446 34.7204 22.5225 27.4987 22.5225 17.2574C22.5225 6.34972 31.4104 0.0319824 41.7466 0.0319824C46.7651 0.0319824 50.7158 1.05415 52.318 1.2906C52.4202 3.24504 52.7035 6.49873 53.1025 9.64405L51.488 9.95932C50.2626 5.61696 48.7072 3.71425 45.4978 2.64036C44.323 2.23272 42.2651 1.98518 40.8193 1.98518C33.2971 1.98518 28.3131 7.34971 28.3131 16.5973C28.3131 24.8768 32.318 32.7734 41.9535 32.7734C43.5619 32.7734 45.1 32.4532 46.1025 31.9322C47.121 31.3473 47.7392 30.7303 47.7392 28.7266V24.4827C47.7392 20.782 47.2749 20.3817 42.4806 19.9963V18.4408H55.9954V19.9963V19.9987Z" fill="#353435"/>
<path d="M78.936 33.9544V32.4408C82.2378 32.0234 82.5727 31.5036 81.8584 29.516C81.2217 27.6059 80.2365 25.0972 79.2193 22.0911H68.3769C67.606 24.261 66.8486 26.2438 66.17 28.2463C65.0555 31.5492 65.8621 31.9581 70.0235 32.4408V33.9544H58.0752V32.4408C61.2932 32.0332 62.1109 31.6564 63.8892 27.1145L74.473 0.36695L76.255 0.0332031C79.4828 8.79675 82.9988 18.3509 86.2353 27.133C87.9163 31.633 88.3757 32.0332 91.9471 32.4408V33.9544H78.9336H78.936ZM73.9373 7.23148C72.3301 11.4963 70.6479 15.9248 69.1614 19.9051H78.457L73.9373 7.23148Z" fill="#353435"/>
<path d="M129.345 2.26233C126.102 2.62932 125.048 3.1675 124.895 5.50863C124.826 7.20814 124.714 9.27957 124.714 13.9754V34.4335H122.608L100.845 7.92612V20.4778C100.845 25.0468 100.989 27.2919 101.1 28.7734C101.22 31.3141 102.461 32.154 106.158 32.4421V33.9557H93.697V32.4421C96.8189 32.1872 98.0541 31.42 98.277 28.936C98.4396 27.2648 98.5418 25.048 98.5418 20.436V7.5739C98.5418 6.0973 98.4396 5.22538 97.511 4.06405C96.5492 2.78696 95.4494 2.5074 93.0098 2.26233V0.748779H101.086L122.351 25.8929V13.9754C122.351 9.27834 122.257 7.17366 122.105 5.5776C121.951 3.29681 120.841 2.51725 116.727 2.26233V0.748779H129.345V2.26233Z" fill="#353435"/>
<path d="M4.16748 45.2686H4.85098V46.8856H6.70566V45.2686H7.38916V49.1553H6.70566V47.5173H4.85098V49.1553H4.16748V45.2686Z" fill="#353435"/>
<path d="M9.49365 45.2686H12.3754V45.8794H10.1772V46.8893H12.1254V47.505H10.1772V48.5432H12.4038V49.154H9.49365V45.2673V45.2686Z" fill="#353435"/>
<path d="M15.6996 45.2415H16.3326L18.0432 49.1565H17.3215L16.9274 48.2181H15.09L14.6897 49.1565H13.9902L15.7008 45.2415H15.6996ZM16.6774 47.6121L16.005 46.058L15.3388 47.6121H16.6774Z" fill="#353435"/>
<path d="M19.8154 45.2686H20.4989V48.5333H22.542V49.1553H19.8154V45.2686Z" fill="#353435"/>
<path d="M24.7645 45.9028H23.5269V45.2698H26.687V45.9028H25.4493V49.1565H24.7658V45.9028H24.7645Z" fill="#353435"/>
<path d="M28.5049 45.2686H29.1884V46.8856H31.0431V45.2686H31.7266V49.1553H31.0431V47.5173H29.1884V49.1553H28.5049V45.2686Z" fill="#353435"/>
<path d="M34.9755 47.6232L33.4312 45.2686H34.2415L35.324 46.9841L36.4238 45.2686H37.2058L35.6627 47.606V49.1553H34.9743V47.6232H34.9755Z" fill="#353435"/>
<path d="M41.6885 45.2686H44.5813V45.8905H42.372V46.9508H44.3313V47.5727H42.372V49.1553H41.6885V45.2686Z" fill="#353435"/>
<path d="M46.4385 45.2686H49.3203V45.8794H47.122V46.8893H49.0703V47.505H47.122V48.5432H49.3486V49.154H46.4385V45.2673V45.2686Z" fill="#353435"/>
<path d="M51.2661 45.2686H54.1479V45.8794H51.9496V46.8893H53.8979V47.505H51.9496V48.5432H54.1762V49.154H51.2661V45.2673V45.2686Z" fill="#353435"/>
<path d="M56.0938 45.2686H57.5433C58.7649 45.2686 59.6085 46.1072 59.6085 47.2008V47.2119C59.6085 48.3055 58.7649 49.1553 57.5433 49.1553H56.0938V45.2686ZM56.7772 45.8905V48.5333H57.5433C58.3598 48.5333 58.893 47.9841 58.893 47.223V47.2119C58.893 46.452 58.3598 45.8905 57.5433 45.8905H56.7772Z" fill="#353435"/>
<path d="M61.0098 49.6773C61.3484 49.6108 61.5098 49.4384 61.4876 49.1552H61.1982V48.3892H61.9359V49.0382C61.9359 49.6601 61.6415 49.915 61.0812 49.9655L61.0098 49.6761V49.6773Z" fill="#353435"/>
<path d="M66.6973 45.2686H67.3808V46.8856H69.2354V45.2686H69.9189V49.1553H69.2354V47.5173H67.3808V49.1553H66.6973V45.2686Z" fill="#353435"/>
<path d="M73.4013 45.2415H74.0343L75.7448 49.1565H75.0232L74.6291 48.2181H72.7916L72.3914 49.1565H71.6919L73.4025 45.2415H73.4013ZM74.3791 47.6121L73.7067 46.058L73.0404 47.6121H74.3791Z" fill="#353435"/>
<path d="M77.5186 45.2686H79.0506C79.9619 45.2686 80.5284 45.7858 80.5284 46.5678V46.5789C80.5284 47.4447 79.8351 47.9053 78.9742 47.9053H78.2021V49.1553H77.5186V45.2686ZM78.9964 47.2895C79.5124 47.2895 79.8351 47.0001 79.8351 46.5961V46.5851C79.8351 46.1245 79.5075 45.8917 78.9964 45.8917H78.2021V47.2907H78.9964V47.2895Z" fill="#353435"/>
<path d="M82.3335 45.2686H83.8655C84.7768 45.2686 85.3433 45.7858 85.3433 46.5678V46.5789C85.3433 47.4447 84.65 47.9053 83.7892 47.9053H83.017V49.1553H82.3335V45.2686ZM83.8113 47.2895C84.3273 47.2895 84.65 47.0001 84.65 46.5961V46.5851C84.65 46.1245 84.3224 45.8917 83.8113 45.8917H83.017V47.2907H83.8113V47.2895Z" fill="#353435"/>
<path d="M88.2387 47.6232L86.6943 45.2686H87.5047L88.5872 46.9841L89.6869 45.2686H90.469L88.9259 47.606V49.1553H88.2374V47.6232H88.2387Z" fill="#353435"/>
<path d="M96.33 45.2415H96.963L98.6736 49.1565H97.9519L97.5578 48.2181H95.7204L95.3201 49.1565H94.6206L96.3312 45.2415H96.33ZM97.3078 47.6121L96.6354 46.058L95.9691 47.6121H97.3078Z" fill="#353435"/>
<path d="M100.446 45.2686H101.079L103.161 47.957V45.2686H103.833V49.1553H103.261L101.117 46.3905V49.1553H100.446V45.2686Z" fill="#353435"/>
<path d="M105.978 45.2686H106.66V49.1553H105.978V45.2686Z" fill="#353435"/>
<path d="M108.808 45.2686H109.536L110.718 47.1072L111.902 45.2686H112.63V49.1553H111.946V46.3683L110.718 48.2008H110.696L109.481 46.3794V49.1565H108.809V45.2698L108.808 45.2686Z" fill="#353435"/>
<path d="M116.111 45.2415H116.744L118.454 49.1565H117.733L117.339 48.2181H115.501L115.101 49.1565H114.401L116.112 45.2415H116.111ZM117.089 47.6121L116.416 46.058L115.75 47.6121H117.089Z" fill="#353435"/>
<path d="M120.228 45.2686H120.912V48.5333H122.955V49.1553H120.228V45.2686Z" fill="#353435"/>
<path d="M124.505 48.59L124.916 48.1011C125.294 48.4287 125.66 48.606 126.144 48.606C126.566 48.606 126.832 48.4053 126.832 48.1171V48.106C126.832 47.8338 126.676 47.6725 125.956 47.5112C125.128 47.3166 124.661 47.0617 124.661 46.3511V46.34C124.661 45.6737 125.217 45.2131 125.988 45.2131C126.56 45.2131 126.999 45.3855 127.399 45.702L127.032 46.2193C126.676 45.9582 126.332 45.819 125.978 45.819C125.578 45.819 125.345 46.0186 125.345 46.2796V46.2907C125.345 46.5912 125.522 46.7242 126.272 46.9016C127.089 47.1122 127.516 47.3905 127.516 48.0407V48.0518C127.516 48.7846 126.945 49.2131 126.128 49.2131C125.528 49.2131 124.973 49.0124 124.506 48.5912L124.505 48.59Z" fill="#353435"/>
</svg>
