<svg version="1.1" id="Слой_1" xmlns="http://www.w3.org/2000/svg" xmlns:xlink="http://www.w3.org/1999/xlink" x="0px" y="0px"
	 viewBox="0 0 146.6 59.7" style="enable-background:new 0 0 146.6 59.7;" xml:space="preserve" height="147" >
<style type="text/css">
	.st0{fill:#E1B162;}
	.st1{fill:none;stroke:#FFFFFF;stroke-width:4.315094e-02;stroke-miterlimit:10;}
</style>
<g>
	<g>
		<path class="st0" d="M66.4,6.4h4.8v0.2h-0.3c-0.3,0-0.6,0.1-0.8,0.3c-0.2,0.2-0.3,0.4-0.4,0.7v8.3c0,1.8-0.6,3.2-1.7,4.3
			c-1.1,1-2.7,1.5-4.7,1.5c-2.6,0-4.5-0.5-5.8-1.5c-1.3-1-1.9-2.4-1.9-4.3V7.7c0-0.3-0.1-0.6-0.3-0.8c-0.2-0.2-0.5-0.3-0.8-0.3h-0.3
			V6.4h7.3v0.2h-0.3c-0.3,0-0.6,0.1-0.8,0.3c-0.2,0.2-0.3,0.4-0.3,0.7v8.2c0,1.5,0.3,2.7,1,3.5c0.7,0.8,1.6,1.3,2.9,1.3
			c1.2,0,2.2-0.4,2.9-1.2c0.7-0.8,1-1.9,1-3.3V7.7c0-0.3-0.1-0.5-0.3-0.7c-0.2-0.2-0.5-0.3-0.8-0.3h-0.3V6.4z"/>
		<path class="st0" d="M98.8,16.5H99l-0.8,5H85.7v-0.2H86c0.4,0,0.7-0.1,1-0.4c0.3-0.3,0.4-0.6,0.4-1V8c0-0.4-0.2-0.7-0.4-1
			c-0.3-0.3-0.6-0.4-1-0.4h-0.3V6.4h9.5c0.4,0,0.9,0,1.4-0.1c0.5-0.1,0.9-0.2,1.1-0.3v4.4h-0.2v-0.2c0-0.8-0.2-1.5-0.7-2
			c-0.5-0.5-1.1-0.7-2-0.8h-3.1v6h2.3c0.7,0,1.2-0.2,1.7-0.7c0.4-0.4,0.6-1,0.6-1.7v-0.1h0.2v6h-0.2v-0.1c0-0.7-0.2-1.2-0.6-1.7
			c-0.4-0.4-1-0.7-1.6-0.7h-2.4v5.8h2.6c1,0,2-0.3,2.8-1C97.9,18.6,98.5,17.7,98.8,16.5z"/>
		<path class="st0" d="M85,16.5h0.2l-0.8,5H71.9v-0.2h0.3c0.4,0,0.7-0.1,1-0.4c0.3-0.3,0.4-0.6,0.4-1V8c0-0.4-0.2-0.7-0.4-1
			c-0.3-0.3-0.6-0.4-1-0.4h-0.3V6.4h9.5c0.4,0,0.9,0,1.4-0.1c0.5-0.1,0.9-0.2,1.1-0.3v4.4h-0.2v-0.2c0-0.8-0.2-1.5-0.7-2
			c-0.5-0.5-1.1-0.7-2-0.8H78v6h2.3c0.7,0,1.2-0.2,1.7-0.7c0.4-0.4,0.6-1,0.6-1.7v-0.1h0.2v6h-0.2v-0.1c0-0.7-0.2-1.2-0.6-1.7
			c-0.4-0.4-1-0.7-1.6-0.7H78v5.8h2.6c1,0,2-0.3,2.8-1C84.1,18.6,84.7,17.7,85,16.5z"/>
		<path class="st0" d="M109.6,6.4h7.8v0.2h-0.4c-0.4,0-0.7,0.1-0.9,0.4c-0.3,0.2-0.4,0.6-0.4,0.9v11c0,0.5,0,1,0.1,1.5
			c0,0.5,0.1,0.8,0.1,1l0.1,0.3h-0.2l-10.3-9.1v7.3c0,0.4,0.1,0.7,0.4,0.9c0.3,0.2,0.6,0.4,0.9,0.4h0.4v0.2h-7.8v-0.2h0.4
			c0.4,0,0.7-0.1,0.9-0.4c0.3-0.2,0.4-0.6,0.4-0.9V8.8c0-0.5,0-1-0.1-1.4c0-0.4-0.1-0.8-0.1-1l-0.1-0.3h0.2l10.3,9.1V8
			c0-0.4-0.1-0.7-0.4-0.9c-0.3-0.2-0.6-0.4-0.9-0.4h-0.4V6.4z"/>
	</g>
	<path class="st0" d="M54.2,28.4h8.1c2.7,0,4.8,0.7,6.3,2c1.5,1.3,2.3,3.2,2.3,5.5s-0.8,4.2-2.3,5.5c-1.5,1.3-3.6,2-6.3,2h-8.1v-0.2
		h0.3c0.4,0,0.7-0.1,1-0.4c0.3-0.3,0.4-0.6,0.4-1v-12c0-0.3-0.1-0.6-0.4-0.9c-0.3-0.2-0.6-0.4-1-0.4h-0.3L54.2,28.4z M60.3,29.5
		v12.8h1.6c1.3,0,2.4-0.6,3.1-1.7c0.8-1.1,1.1-2.7,1.1-4.7s-0.4-3.6-1.1-4.7c-0.8-1.1-1.8-1.7-3.1-1.7H60.3z"/>
	<path class="st0" d="M84.4,38.4h0.2l-0.8,5H71.3v-0.2h0.3c0.4,0,0.7-0.1,1-0.4c0.3-0.3,0.4-0.6,0.4-1V30c0-0.4-0.2-0.7-0.4-1
		c-0.3-0.3-0.6-0.4-1-0.4h-0.3v-0.2h9.5c0.4,0,0.9,0,1.4-0.1c0.5-0.1,0.9-0.2,1.1-0.3v4.4h-0.2v-0.2c0-0.8-0.2-1.5-0.7-2
		c-0.5-0.5-1.1-0.7-2-0.8h-3.1v6h2.3c0.7,0,1.2-0.2,1.7-0.7c0.4-0.4,0.6-1,0.6-1.7v-0.1h0.2V39H82v-0.1c0-0.7-0.2-1.2-0.6-1.7
		c-0.4-0.4-1-0.7-1.6-0.7h-2.4v5.7h2.6c1,0,2-0.3,2.8-1C83.5,40.6,84.1,39.6,84.4,38.4z"/>
	<path class="st0" d="M95.2,28.4h7.8v0.2h-0.4c-0.4,0-0.7,0.1-0.9,0.4c-0.3,0.2-0.4,0.6-0.4,0.9v11c0,0.5,0,1,0.1,1.5
		c0,0.5,0.1,0.8,0.1,1l0.1,0.3h-0.2l-10.2-9.1v7.3c0,0.4,0.1,0.7,0.4,0.9c0.3,0.2,0.6,0.4,0.9,0.4h0.4v0.2H85v-0.2h0.4
		c0.4,0,0.7-0.1,0.9-0.4c0.3-0.2,0.4-0.6,0.4-0.9V30.8c0-0.5,0-1-0.1-1.4c0-0.4-0.1-0.8-0.1-1l-0.1-0.3h0.2l10.2,9.1v-7.3
		c0-0.4-0.1-0.7-0.4-0.9c-0.3-0.2-0.6-0.4-0.9-0.4h-0.4V28.4z"/>
	<path class="st0" d="M106.2,28.4h9.5c0.4,0,0.9,0,1.4-0.1c0.5-0.1,0.9-0.2,1.1-0.3v4.4l-0.2,0v-0.1c0-0.9-0.2-1.5-0.7-2
		c-0.5-0.5-1.2-0.7-2-0.8h-2.1v12.4c0,0.4,0.2,0.7,0.4,0.9c0.3,0.3,0.6,0.4,1,0.4h0.3v0.2h-7.7v-0.2h0.3c0.4,0,0.7-0.1,1-0.4
		c0.3-0.3,0.4-0.6,0.4-0.9V29.5h-2.1c-0.9,0-1.5,0.3-2,0.8c-0.5,0.5-0.7,1.2-0.7,2v0.1l-0.2,0V28c0.2,0.1,0.6,0.2,1.1,0.3
		C105.3,28.4,105.8,28.4,106.2,28.4z"/>
	<path class="st0" d="M123.8,27.9l6.8,14.1c0.5,0.8,1.1,1.2,1.8,1.2h0.2v0.2h-8.1v-0.2h0.2c0.3,0,0.6-0.1,0.8-0.4
		c0.2-0.2,0.2-0.6,0.1-1l-0.8-2h-4.6l-0.9,2c-0.2,0.4-0.2,0.7,0,1c0.2,0.2,0.5,0.4,0.8,0.4h0.2v0.2h-4.8v-0.2h0.2
		c0.3,0,0.7-0.1,1-0.3c0.3-0.2,0.6-0.5,0.8-0.9l5-10.9c0.8-1.6,1.2-2.7,1.2-3.2H123.8z M120.6,38.8h3.7l-1.8-4.3L120.6,38.8z"/>
	<path class="st0" d="M146.4,38.4h0.2l-0.8,5h-12.5v-0.2h0.3c0.4,0,0.7-0.1,1-0.4c0.3-0.3,0.4-0.6,0.4-1V30c0-0.4-0.2-0.7-0.4-1
		c-0.3-0.3-0.6-0.4-1-0.4h-0.3v-0.2h7.7v0.2h-0.3c-0.4,0-0.7,0.1-1,0.4c-0.3,0.3-0.4,0.6-0.4,1v12.3h2.6c1,0,2-0.3,2.8-1
		C145.5,40.6,146.1,39.6,146.4,38.4z"/>
	<path class="st0" d="M89.2,47.8l0.4,0.2c-1.1,3.5-3.1,6.3-6,8.3c-2.9,2-6.4,3.1-10.4,3.4c-4,0.3-8.3-0.1-13-1
		c-4.6-0.9-9.3-2.4-14-4.5c-3.1-1.4-11.4-5.5-24.7-12.2l0-0.6c2.1,0.1,4.1-0.2,6-0.9c1.9-0.7,3.8-1.7,5.5-3c1.7-1.4,3.2-3.2,4.4-5.6
		c1.2-2.4,1.9-5.1,2.2-8.2c0.2-2.4,0.1-4.8-0.3-7.2c-0.4-2.3-1.2-4.5-2.2-6.5c-1-2-2.4-3.6-4.1-4.8c-1.8-1.3-3.8-2-6-2.2
		c-4-0.4-7.5,1-10.2,4.1c-2.8,3.1-4.3,7.7-4.4,13.8c-0.1,4.2,0.5,7.7,1.9,10.5c1.4,2.8,3.6,4.3,6.5,4.7c0.9,0.1,1.8,0.1,2.6-0.1
		c0.8-0.1,1.7-0.5,2.5-0.9c0.9-0.5,1.6-1.2,2.2-2.2c0.6-1,1-2.3,1.2-3.8l0.6,0c0.1,2-0.1,3.6-0.7,5c-0.5,1.4-1.3,2.4-2.1,3
		c-0.9,0.6-2,1.1-3.3,1.4c-1.3,0.3-2.5,0.4-3.7,0.3c-1.2-0.1-2.4-0.2-3.6-0.5c-4.9-1-8.9-3.2-12.1-6.5C1.4,28.4-0.1,24.3,0,19.6
		c0.1-2.8,0.7-5.4,2-7.8c1.3-2.4,3-4.5,5.3-6.3c2.3-1.8,5.1-3.2,8.5-4.1c3.4-1,7.1-1.4,11.1-1.2c7.6,0.3,13.8,2.4,18.4,6.3
		c4.6,3.9,6.8,9,6.7,15.1c-0.1,2.8-0.7,5.5-1.8,8c-1.2,2.5-2.7,4.6-4.6,6.3c-1.9,1.7-4.1,3.2-6.5,4.4c-2.4,1.2-4.9,1.9-7.6,2.3
		c6.4,0.9,13.4,2.2,21.2,3.9c0.8,0.2,2,0.4,3.7,0.8c2.5,0.6,4.5,1,5.8,1.3c1.3,0.3,3.1,0.6,5.4,1.1c2.3,0.4,4.1,0.7,5.5,0.8
		c1.3,0.1,2.9,0.2,4.8,0.3c1.9,0.1,3.4,0,4.6-0.2c1.2-0.2,2.4-0.5,3.7-0.9C87.2,49.1,88.3,48.5,89.2,47.8z"/>
</g>
<path class="st1" d="M-72.6,51.8"/>
</svg>
