<svg xmlns="http://www.w3.org/2000/svg" viewBox="0 0 565.59 175.82" style="enable-background:new 0 0 363 75.3;" xml:space="preserve" width="350px"><g id="Слой_2" data-name="Слой 2"><g id="Слой_1-2" data-name="Слой 1"><g id="Слой_2-2" data-name="Слой 2"><g id="Layer_1" data-name="Layer 1"><polygon points="88.53 104.95 73.77 96.41 59.02 87.91 44.26 79.41 29.51 70.87 14.76 62.37 0 70.87 14.76 79.41 29.51 87.91 44.26 96.41 59.02 104.95 73.77 113.45 88.53 121.99 73.77 130.49 59.02 121.99 44.26 113.45 29.51 104.95 29.51 121.99 44.26 130.49 59.02 139.03 73.77 147.53 88.53 139.03 103.25 130.49 118 121.99 103.25 113.45 88.53 104.95"/><polygon points="44.26 45.33 29.51 53.83 44.26 62.37 59.02 70.87 73.77 79.41 88.53 87.91 103.25 96.41 118 104.95 132.76 113.45 147.51 104.95 132.76 96.41 118 87.91 103.25 79.41 88.53 70.87 73.77 62.37 59.02 53.83 73.77 45.33 88.53 53.83 103.25 62.37 118 70.87 118 53.83 103.25 45.33 88.53 36.8 73.77 28.29 59.02 36.8 44.26 45.33"/></g></g><path d="M242.63,78.79a21.3,21.3,0,0,1-10.92-2.94,21.81,21.81,0,0,1-8-8,21.44,21.44,0,0,1-2.93-11A21.94,21.94,0,0,1,242.63,35h72.43A.83.83,0,0,1,316,36V48.14a.84.84,0,0,1-.94,1H242.63a7.82,7.82,0,1,0,0,15.64h53.11a22,22,0,0,1,21.94,21.93,20.91,20.91,0,0,1-6.46,15.43,21.19,21.19,0,0,1-15.48,6.41H223.31a.84.84,0,0,1-.94-1V95.38a.84.84,0,0,1,.94-.95h72.54a7.43,7.43,0,0,0,5.51-2.31,7.87,7.87,0,0,0,0-11,7.43,7.43,0,0,0-5.51-2.31Z"/><path d="M444,48.14a.84.84,0,0,1-.95,1H363.59V64.73H423a.84.84,0,0,1,.95.94V77.85a.84.84,0,0,1-.95.94H363.59V94.43h79.46a.84.84,0,0,1,.95.95v12.17a.84.84,0,0,1-.95,1H350.47a.84.84,0,0,1-.94-1V36a.83.83,0,0,1,.94-.94h92.58A.84.84,0,0,1,444,36Z"/><path d="M564.54,35c.7,0,1.05.31,1.05.94V48.14c0,.63-.35,1-1.05,1H524.13v58.46a.84.84,0,0,1-1,1H511.11c-.7,0-1.05-.32-1.05-1V49.09H469.65a.84.84,0,0,1-.94-1V36a.83.83,0,0,1,.94-.94Z"/><path d="M229.56,140.54l-3.34-4.41H224.3v4.41h-3.5V126.27H227c4,0,6.34,1.83,6.34,5A4.47,4.47,0,0,1,230,135.7l3.63,4.84Zm-5.26-11.36v4.14h2.59c1.86,0,2.94-.57,2.94-2s-1.08-2.1-2.94-2.1Z"/><path d="M245.12,137.64h8.38v2.9H241.68V126.27H253.3v2.89h-8.18v2.69h7.24v2.75h-7.24Z"/><path d="M273,140.54l-.94-2.35h-6.85l-.94,2.35h-3.63l5.92-14.27h4.2l5.93,14.27Zm-6.69-5H271l-2.32-5.83Z"/><path d="M284.56,140.54V126.27H288v11.29h7.36v3Z"/><path d="M318.54,137.64h8.38v2.9H315.09V126.27h11.62v2.89h-8.17v2.69h7.23v2.75h-7.23Z"/><path d="M334.63,139.54l.28-3a14.14,14.14,0,0,0,5.69,1.29c1.45,0,2.67-.23,2.67-1.39s-1-1.41-2.91-1.79c-3.61-.62-5.55-1.59-5.55-4.23,0-2.93,2.86-4.42,6.1-4.42a12.57,12.57,0,0,1,5.2,1.06l-.43,3a12.16,12.16,0,0,0-4.77-1.1c-1.39,0-2.37.24-2.37,1.34,0,.9.67,1.16,2.71,1.55,3.67.63,5.73,1.78,5.73,4.47,0,3-2.89,4.48-6.38,4.48A13.22,13.22,0,0,1,334.63,139.54Z"/><path d="M366.33,126.27v3h-4.58v11.28h-3.53V129.26h-4.55v-3Z"/><path d="M383.38,140.54l-.93-2.35H375.6l-.94,2.35H371l5.91-14.27h4.2l5.93,14.27Zm-6.68-5h4.67L379,129.67Z"/><path d="M404.41,126.27v3h-4.59v11.28H396.3V129.26h-4.55v-3Z"/><path d="M416,137.64h8.38v2.9H412.51V126.27h11.62v2.89H416v2.69h7.24v2.75H416Z"/><path d="M455.53,140.54l-.94-2.35h-6.85l-.93,2.35h-3.63l5.91-14.27h4.2l5.93,14.27Zm-6.68-5h4.66l-2.32-5.83Z"/><path d="M474.66,132.77h4.75l0,6.14a11.44,11.44,0,0,1-6.09,1.87c-4.51,0-7.77-3.1-7.77-7.36,0-4.67,3.73-7.4,8-7.4a10.29,10.29,0,0,1,5.36,1.51l-1.36,2.73a7.63,7.63,0,0,0-4-1.2,4.12,4.12,0,0,0-4.4,4.36,4,4,0,0,0,4.32,4.34,4.76,4.76,0,0,0,2.63-.61v-1.79h-1.41Z"/><path d="M491.51,137.64h8.38v2.9H488.06V126.27h11.62v2.89h-8.17v2.69h7.24v2.75h-7.24Z"/><path d="M508.41,140.54V126.27h3.25l7.11,8.7v-8.7h3.51v14.27h-3.14l-7.22-8.85v8.85Z"/><path d="M531,133.4c0-4.59,3.32-7.38,7.65-7.38a9.58,9.58,0,0,1,5.5,1.78l-1.49,2.64a6.56,6.56,0,0,0-3.85-1.38,4.33,4.33,0,0,0,0,8.66,6.63,6.63,0,0,0,3.87-1.36l1.47,2.65a9.28,9.28,0,0,1-5.4,1.79C534.4,140.8,531,137.91,531,133.4Z"/><path d="M565.59,126.27l-5.73,9.39v4.88h-3.52V135.6l-5.73-9.33h3.81l3.69,6.48,3.67-6.48Z"/><rect x="183.84" width="3.66" height="175.82"/></g></g></svg>