<svg version="1.1" id="Layer_1" xmlns="http://www.w3.org/2000/svg" xmlns:xlink="http://www.w3.org/1999/xlink" x="0px" y="0px"
	 viewBox="0 0 4031.7 1326.6" style="enable-background:new 0 0 4031.7 1326.6;" xml:space="preserve" width="350px">
<style type="text/css">
	.st0{clip-path:url(#SVGID_7_);}
	.st1{clip-path:url(#SVGID_12_);}
	.st2{clip-path:url(#SVGID_13_);}
	.st3{clip-path:url(#SVGID_19_);}
	.st4{clip-path:url(#SVGID_20_);}
	.st5{clip-path:url(#SVGID_21_);}
	.st6{clip-path:url(#SVGID_28_);}
	.st7{clip-path:url(#SVGID_29_);}
	.st8{clip-path:url(#SVGID_30_);}
	.st9{clip-path:url(#SVGID_31_);}
	.st10{clip-path:url(#SVGID_39_);}
	.st11{clip-path:url(#SVGID_40_);}
	.st12{clip-path:url(#SVGID_41_);}
	.st13{clip-path:url(#SVGID_42_);}
	.st14{clip-path:url(#SVGID_43_);}
	.st15{clip-path:url(#SVGID_52_);}
	.st16{clip-path:url(#SVGID_53_);}
	.st17{clip-path:url(#SVGID_54_);}
	.st18{clip-path:url(#SVGID_55_);}
	.st19{clip-path:url(#SVGID_56_);}
	.st20{clip-path:url(#SVGID_57_);}
	.st21{clip-path:url(#SVGID_67_);}
	.st22{clip-path:url(#SVGID_68_);}
	.st23{clip-path:url(#SVGID_69_);}
	.st24{clip-path:url(#SVGID_70_);}
	.st25{clip-path:url(#SVGID_71_);}
	.st26{clip-path:url(#SVGID_72_);}
	.st27{clip-path:url(#SVGID_73_);}
	.st28{clip-path:url(#SVGID_84_);}
	.st29{clip-path:url(#SVGID_85_);}
	.st30{clip-path:url(#SVGID_86_);}
	.st31{clip-path:url(#SVGID_87_);}
	.st32{clip-path:url(#SVGID_88_);}
	.st33{clip-path:url(#SVGID_89_);}
	.st34{clip-path:url(#SVGID_90_);}
	.st35{clip-path:url(#SVGID_91_);}
	.st36{clip-path:url(#SVGID_103_);}
	.st37{clip-path:url(#SVGID_104_);}
	.st38{clip-path:url(#SVGID_105_);}
	.st39{clip-path:url(#SVGID_106_);}
	.st40{clip-path:url(#SVGID_107_);}
	.st41{clip-path:url(#SVGID_108_);}
	.st42{clip-path:url(#SVGID_109_);}
	.st43{clip-path:url(#SVGID_110_);}
	.st44{clip-path:url(#SVGID_111_);}
	.st45{clip-path:url(#SVGID_124_);}
	.st46{clip-path:url(#SVGID_125_);}
	.st47{clip-path:url(#SVGID_126_);}
	.st48{clip-path:url(#SVGID_127_);}
	.st49{clip-path:url(#SVGID_128_);}
	.st50{clip-path:url(#SVGID_129_);}
	.st51{clip-path:url(#SVGID_130_);}
	.st52{clip-path:url(#SVGID_131_);}
	.st53{clip-path:url(#SVGID_132_);}
	.st54{clip-path:url(#SVGID_133_);}
	.st55{fill-rule:evenodd;clip-rule:evenodd;fill:url(#SVGID_135_);}
</style>
<g>
	<g>
		<polygon id="SVGID_1_" points="1542.8,505.8 1542.8,838.1 1500.1,838.1 1500.1,505.8 1378.5,505.8 1378.5,464.7 1664.9,464.7 
			1664.9,505.8 		"/>
	</g>
	<path d="M1863.4,463.7c-109.4,0-195.8,82.2-195.8,187.8c0,105.1,86.4,188.8,195.8,188.8c108.8,0,195.2-83.7,195.2-188.8
		S1972.2,463.7,1863.4,463.7z M1863.4,799.2c-83.3,0-152.6-65.7-152.6-147.8s69.4-147.2,152.6-147.2s151.5,65,151.5,147.2
		S1946.6,799.2,1863.4,799.2z"/>
	<path d="M2276.7,464.8h-140.3v373.4h42.7V720.3h97.6c92.3,0,145.7-47.5,145.6-130.1C2422.3,510.7,2369,464.8,2276.7,464.8z
		 M2275.1,679.2h-96V505.8h96c67.3,0,106.2,28.9,106.1,85.4C2381.2,649.3,2342.3,679.2,2275.1,679.2z"/>
	<g>
		<polygon id="SVGID_6_" points="2587.2,558.1 2587.2,622.6 2753.1,622.6 2753.1,716.5 2587.2,716.5 2587.2,838.1 2463.4,838.1 
			2463.4,464.2 2764.3,464.2 2764.3,558.1 		"/>
	</g>
	<path d="M2986.7,460.5c-119,0-205.4,79.5-205.4,190.4c0,111.5,86.4,192.6,205.4,192.6s205.4-81.6,205.4-192.6
		C3192.1,540.5,3105.7,460.5,2986.7,460.5z M2988.3,740.6c-42.7,0-80-37.9-80-89.1s36.8-88,80-88c42.7,0,76.8,36.8,76.8,88
		C3065.1,702.7,3031,740.6,2988.3,740.6z"/>
	<path d="M3413.4,460.5c-119,0-205.4,79.5-205.4,190.4c0,111.5,86.4,192.6,205.4,192.6s205.4-81.6,205.4-192.6
		C3618.8,540.5,3532.4,460.5,3413.4,460.5z M3415,740.6c-42.7,0-80-37.9-80-89.1s36.8-88,80-88c42.7,0,76.9,36.8,76.8,88
		C3491.8,702.7,3457.7,740.6,3415,740.6z"/>
	<path d="M3820.4,464.2h-167v374h162.2c126.5,0,208.1-73.6,208-187.3C4023.6,537.3,3943.6,464.2,3820.4,464.2z M3823.7,742.2h-46.4
		V560.3h40.5c48,0,79.4,36.2,79.5,91.7C3897.3,707,3868.5,742.2,3823.7,742.2z"/>
	<g>
		<defs>
			<polygon id="SVGID_2_" points="1542.8,505.8 1542.8,838.1 1500.1,838.1 1500.1,505.8 1378.5,505.8 1378.5,464.7 1664.9,464.7 
				1664.9,505.8 			"/>
		</defs>
		<clipPath id="SVGID_3_">
			<use xlink:href="#SVGID_2_"  style="overflow:visible;"/>
		</clipPath>
	</g>
	<g>
		<defs>
			<polygon id="SVGID_4_" points="1542.8,505.8 1542.8,838.1 1500.1,838.1 1500.1,505.8 1378.5,505.8 1378.5,464.7 1664.9,464.7 
				1664.9,505.8 			"/>
		</defs>
		<defs>
			<path id="SVGID_5_" d="M1863.4,840.3c-109.4,0-195.8-83.7-195.8-188.8c0-105.6,86.4-187.8,195.8-187.8
				c108.8,0,195.2,82.7,195.2,187.8S1972.2,840.3,1863.4,840.3L1863.4,840.3z"/>
		</defs>
		<clipPath id="SVGID_7_">
			<use xlink:href="#SVGID_4_"  style="overflow:visible;"/>
		</clipPath>
		<clipPath id="SVGID_8_" class="st0">
			<use xlink:href="#SVGID_5_"  style="overflow:visible;"/>
		</clipPath>
	</g>
	<g>
		<defs>
			<polygon id="SVGID_9_" points="1542.8,505.8 1542.8,838.1 1500.1,838.1 1500.1,505.8 1378.5,505.8 1378.5,464.7 1664.9,464.7 
				1664.9,505.8 			"/>
		</defs>
		<defs>
			<path id="SVGID_10_" d="M1863.4,840.3c-109.4,0-195.8-83.7-195.8-188.8c0-105.6,86.4-187.8,195.8-187.8
				c108.8,0,195.2,82.7,195.2,187.8S1972.2,840.3,1863.4,840.3L1863.4,840.3z"/>
		</defs>
		<defs>
			<path id="SVGID_11_" d="M1863.4,504.2c-83.2,0-152.6,65.1-152.6,147.2s69.3,147.8,152.6,147.8c83.2,0,151.5-65.6,151.5-147.8
				S1946.6,504.2,1863.4,504.2L1863.4,504.2z"/>
		</defs>
		<clipPath id="SVGID_12_">
			<use xlink:href="#SVGID_9_"  style="overflow:visible;"/>
		</clipPath>
		<clipPath id="SVGID_13_" class="st1">
			<use xlink:href="#SVGID_10_"  style="overflow:visible;"/>
		</clipPath>
		<clipPath id="SVGID_14_" class="st2">
			<use xlink:href="#SVGID_11_"  style="overflow:visible;"/>
		</clipPath>
	</g>
	<g>
		<defs>
			<polygon id="SVGID_15_" points="1542.8,505.8 1542.8,838.1 1500.1,838.1 1500.1,505.8 1378.5,505.8 1378.5,464.7 1664.9,464.7 
				1664.9,505.8 			"/>
		</defs>
		<defs>
			<path id="SVGID_16_" d="M1863.4,840.3c-109.4,0-195.8-83.7-195.8-188.8c0-105.6,86.4-187.8,195.8-187.8
				c108.8,0,195.2,82.7,195.2,187.8S1972.2,840.3,1863.4,840.3L1863.4,840.3z"/>
		</defs>
		<defs>
			<path id="SVGID_17_" d="M1863.4,504.2c-83.2,0-152.6,65.1-152.6,147.2s69.3,147.8,152.6,147.8c83.2,0,151.5-65.6,151.5-147.8
				S1946.6,504.2,1863.4,504.2L1863.4,504.2z"/>
		</defs>
		<defs>
			<path id="SVGID_18_" d="M2276.7,720.3h-97.6v117.9h-42.7V464.8h140.3c92.3,0,145.6,45.9,145.6,125.4
				C2422.4,672.8,2369,720.3,2276.7,720.3L2276.7,720.3z"/>
		</defs>
		<clipPath id="SVGID_19_">
			<use xlink:href="#SVGID_15_"  style="overflow:visible;"/>
		</clipPath>
		<clipPath id="SVGID_20_" class="st3">
			<use xlink:href="#SVGID_16_"  style="overflow:visible;"/>
		</clipPath>
		<clipPath id="SVGID_21_" class="st4">
			<use xlink:href="#SVGID_17_"  style="overflow:visible;"/>
		</clipPath>
		<clipPath id="SVGID_22_" class="st5">
			<use xlink:href="#SVGID_18_"  style="overflow:visible;"/>
		</clipPath>
	</g>
	<g>
		<defs>
			<polygon id="SVGID_23_" points="1542.8,505.8 1542.8,838.1 1500.1,838.1 1500.1,505.8 1378.5,505.8 1378.5,464.7 1664.9,464.7 
				1664.9,505.8 			"/>
		</defs>
		<defs>
			<path id="SVGID_24_" d="M1863.4,840.3c-109.4,0-195.8-83.7-195.8-188.8c0-105.6,86.4-187.8,195.8-187.8
				c108.8,0,195.2,82.7,195.2,187.8S1972.2,840.3,1863.4,840.3L1863.4,840.3z"/>
		</defs>
		<defs>
			<path id="SVGID_25_" d="M1863.4,504.2c-83.2,0-152.6,65.1-152.6,147.2s69.3,147.8,152.6,147.8c83.2,0,151.5-65.6,151.5-147.8
				S1946.6,504.2,1863.4,504.2L1863.4,504.2z"/>
		</defs>
		<defs>
			<path id="SVGID_26_" d="M2276.7,720.3h-97.6v117.9h-42.7V464.8h140.3c92.3,0,145.6,45.9,145.6,125.4
				C2422.4,672.8,2369,720.3,2276.7,720.3L2276.7,720.3z"/>
		</defs>
		<defs>
			<path id="SVGID_27_" d="M2275.1,505.8h-96v173.4h96c67.2,0,106.1-29.9,106.1-88C2381.3,534.7,2342.4,505.8,2275.1,505.8
				L2275.1,505.8z"/>
		</defs>
		<clipPath id="SVGID_28_">
			<use xlink:href="#SVGID_23_"  style="overflow:visible;"/>
		</clipPath>
		<clipPath id="SVGID_29_" class="st6">
			<use xlink:href="#SVGID_24_"  style="overflow:visible;"/>
		</clipPath>
		<clipPath id="SVGID_30_" class="st7">
			<use xlink:href="#SVGID_25_"  style="overflow:visible;"/>
		</clipPath>
		<clipPath id="SVGID_31_" class="st8">
			<use xlink:href="#SVGID_26_"  style="overflow:visible;"/>
		</clipPath>
		<clipPath id="SVGID_32_" class="st9">
			<use xlink:href="#SVGID_27_"  style="overflow:visible;"/>
		</clipPath>
	</g>
	<g>
		<defs>
			<polygon id="SVGID_33_" points="1542.8,505.8 1542.8,838.1 1500.1,838.1 1500.1,505.8 1378.5,505.8 1378.5,464.7 1664.9,464.7 
				1664.9,505.8 			"/>
		</defs>
		<defs>
			<path id="SVGID_34_" d="M1863.4,840.3c-109.4,0-195.8-83.7-195.8-188.8c0-105.6,86.4-187.8,195.8-187.8
				c108.8,0,195.2,82.7,195.2,187.8S1972.2,840.3,1863.4,840.3L1863.4,840.3z"/>
		</defs>
		<defs>
			<path id="SVGID_35_" d="M1863.4,504.2c-83.2,0-152.6,65.1-152.6,147.2s69.3,147.8,152.6,147.8c83.2,0,151.5-65.6,151.5-147.8
				S1946.6,504.2,1863.4,504.2L1863.4,504.2z"/>
		</defs>
		<defs>
			<path id="SVGID_36_" d="M2276.7,720.3h-97.6v117.9h-42.7V464.8h140.3c92.3,0,145.6,45.9,145.6,125.4
				C2422.4,672.8,2369,720.3,2276.7,720.3L2276.7,720.3z"/>
		</defs>
		<defs>
			<path id="SVGID_37_" d="M2275.1,505.8h-96v173.4h96c67.2,0,106.1-29.9,106.1-88C2381.3,534.7,2342.4,505.8,2275.1,505.8
				L2275.1,505.8z"/>
		</defs>
		<defs>
			<polygon id="SVGID_38_" points="2587.2,558.1 2587.2,622.6 2753.1,622.6 2753.1,716.5 2587.2,716.5 2587.2,838.1 2463.4,838.1 
				2463.4,464.2 2764.3,464.2 2764.3,558.1 			"/>
		</defs>
		<clipPath id="SVGID_39_">
			<use xlink:href="#SVGID_33_"  style="overflow:visible;"/>
		</clipPath>
		<clipPath id="SVGID_40_" class="st10">
			<use xlink:href="#SVGID_34_"  style="overflow:visible;"/>
		</clipPath>
		<clipPath id="SVGID_41_" class="st11">
			<use xlink:href="#SVGID_35_"  style="overflow:visible;"/>
		</clipPath>
		<clipPath id="SVGID_42_" class="st12">
			<use xlink:href="#SVGID_36_"  style="overflow:visible;"/>
		</clipPath>
		<clipPath id="SVGID_43_" class="st13">
			<use xlink:href="#SVGID_37_"  style="overflow:visible;"/>
		</clipPath>
		<clipPath id="SVGID_44_" class="st14">
			<use xlink:href="#SVGID_38_"  style="overflow:visible;"/>
		</clipPath>
	</g>
	<g>
		<defs>
			<polygon id="SVGID_45_" points="1542.8,505.8 1542.8,838.1 1500.1,838.1 1500.1,505.8 1378.5,505.8 1378.5,464.7 1664.9,464.7 
				1664.9,505.8 			"/>
		</defs>
		<defs>
			<path id="SVGID_46_" d="M1863.4,840.3c-109.4,0-195.8-83.7-195.8-188.8c0-105.6,86.4-187.8,195.8-187.8
				c108.8,0,195.2,82.7,195.2,187.8S1972.2,840.3,1863.4,840.3L1863.4,840.3z"/>
		</defs>
		<defs>
			<path id="SVGID_47_" d="M1863.4,504.2c-83.2,0-152.6,65.1-152.6,147.2s69.3,147.8,152.6,147.8c83.2,0,151.5-65.6,151.5-147.8
				S1946.6,504.2,1863.4,504.2L1863.4,504.2z"/>
		</defs>
		<defs>
			<path id="SVGID_48_" d="M2276.7,720.3h-97.6v117.9h-42.7V464.8h140.3c92.3,0,145.6,45.9,145.6,125.4
				C2422.4,672.8,2369,720.3,2276.7,720.3L2276.7,720.3z"/>
		</defs>
		<defs>
			<path id="SVGID_49_" d="M2275.1,505.8h-96v173.4h96c67.2,0,106.1-29.9,106.1-88C2381.3,534.7,2342.4,505.8,2275.1,505.8
				L2275.1,505.8z"/>
		</defs>
		<defs>
			<polygon id="SVGID_50_" points="2587.2,558.1 2587.2,622.6 2753.1,622.6 2753.1,716.5 2587.2,716.5 2587.2,838.1 2463.4,838.1 
				2463.4,464.2 2764.3,464.2 2764.3,558.1 			"/>
		</defs>
		<defs>
			<path id="SVGID_51_" d="M2986.7,843.5c-119,0-205.4-81.1-205.4-192.6c0-110.9,86.4-190.4,205.4-190.4s205.4,80,205.4,190.4
				C3192.1,761.9,3105.7,843.5,2986.7,843.5L2986.7,843.5z"/>
		</defs>
		<clipPath id="SVGID_52_">
			<use xlink:href="#SVGID_45_"  style="overflow:visible;"/>
		</clipPath>
		<clipPath id="SVGID_53_" class="st15">
			<use xlink:href="#SVGID_46_"  style="overflow:visible;"/>
		</clipPath>
		<clipPath id="SVGID_54_" class="st16">
			<use xlink:href="#SVGID_47_"  style="overflow:visible;"/>
		</clipPath>
		<clipPath id="SVGID_55_" class="st17">
			<use xlink:href="#SVGID_48_"  style="overflow:visible;"/>
		</clipPath>
		<clipPath id="SVGID_56_" class="st18">
			<use xlink:href="#SVGID_49_"  style="overflow:visible;"/>
		</clipPath>
		<clipPath id="SVGID_57_" class="st19">
			<use xlink:href="#SVGID_50_"  style="overflow:visible;"/>
		</clipPath>
		<clipPath id="SVGID_58_" class="st20">
			<use xlink:href="#SVGID_51_"  style="overflow:visible;"/>
		</clipPath>
	</g>
	<g>
		<defs>
			<polygon id="SVGID_59_" points="1542.8,505.8 1542.8,838.1 1500.1,838.1 1500.1,505.8 1378.5,505.8 1378.5,464.7 1664.9,464.7 
				1664.9,505.8 			"/>
		</defs>
		<defs>
			<path id="SVGID_60_" d="M1863.4,840.3c-109.4,0-195.8-83.7-195.8-188.8c0-105.6,86.4-187.8,195.8-187.8
				c108.8,0,195.2,82.7,195.2,187.8S1972.2,840.3,1863.4,840.3L1863.4,840.3z"/>
		</defs>
		<defs>
			<path id="SVGID_61_" d="M1863.4,504.2c-83.2,0-152.6,65.1-152.6,147.2s69.3,147.8,152.6,147.8c83.2,0,151.5-65.6,151.5-147.8
				S1946.6,504.2,1863.4,504.2L1863.4,504.2z"/>
		</defs>
		<defs>
			<path id="SVGID_62_" d="M2276.7,720.3h-97.6v117.9h-42.7V464.8h140.3c92.3,0,145.6,45.9,145.6,125.4
				C2422.4,672.8,2369,720.3,2276.7,720.3L2276.7,720.3z"/>
		</defs>
		<defs>
			<path id="SVGID_63_" d="M2275.1,505.8h-96v173.4h96c67.2,0,106.1-29.9,106.1-88C2381.3,534.7,2342.4,505.8,2275.1,505.8
				L2275.1,505.8z"/>
		</defs>
		<defs>
			<polygon id="SVGID_64_" points="2587.2,558.1 2587.2,622.6 2753.1,622.6 2753.1,716.5 2587.2,716.5 2587.2,838.1 2463.4,838.1 
				2463.4,464.2 2764.3,464.2 2764.3,558.1 			"/>
		</defs>
		<defs>
			<path id="SVGID_65_" d="M2986.7,843.5c-119,0-205.4-81.1-205.4-192.6c0-110.9,86.4-190.4,205.4-190.4s205.4,80,205.4,190.4
				C3192.1,761.9,3105.7,843.5,2986.7,843.5L2986.7,843.5z"/>
		</defs>
		<defs>
			<path id="SVGID_66_" d="M2988.3,563.5c-43.2,0-80,36.8-80,88s37.3,89.1,80,89.1s76.8-37.9,76.8-89.1
				C3065.1,600.3,3031,563.5,2988.3,563.5L2988.3,563.5z"/>
		</defs>
		<clipPath id="SVGID_67_">
			<use xlink:href="#SVGID_59_"  style="overflow:visible;"/>
		</clipPath>
		<clipPath id="SVGID_68_" class="st21">
			<use xlink:href="#SVGID_60_"  style="overflow:visible;"/>
		</clipPath>
		<clipPath id="SVGID_69_" class="st22">
			<use xlink:href="#SVGID_61_"  style="overflow:visible;"/>
		</clipPath>
		<clipPath id="SVGID_70_" class="st23">
			<use xlink:href="#SVGID_62_"  style="overflow:visible;"/>
		</clipPath>
		<clipPath id="SVGID_71_" class="st24">
			<use xlink:href="#SVGID_63_"  style="overflow:visible;"/>
		</clipPath>
		<clipPath id="SVGID_72_" class="st25">
			<use xlink:href="#SVGID_64_"  style="overflow:visible;"/>
		</clipPath>
		<clipPath id="SVGID_73_" class="st26">
			<use xlink:href="#SVGID_65_"  style="overflow:visible;"/>
		</clipPath>
		<clipPath id="SVGID_74_" class="st27">
			<use xlink:href="#SVGID_66_"  style="overflow:visible;"/>
		</clipPath>
	</g>
	<g>
		<defs>
			<polygon id="SVGID_75_" points="1542.8,505.8 1542.8,838.1 1500.1,838.1 1500.1,505.8 1378.5,505.8 1378.5,464.7 1664.9,464.7 
				1664.9,505.8 			"/>
		</defs>
		<defs>
			<path id="SVGID_76_" d="M1863.4,840.3c-109.4,0-195.8-83.7-195.8-188.8c0-105.6,86.4-187.8,195.8-187.8
				c108.8,0,195.2,82.7,195.2,187.8S1972.2,840.3,1863.4,840.3L1863.4,840.3z"/>
		</defs>
		<defs>
			<path id="SVGID_77_" d="M1863.4,504.2c-83.2,0-152.6,65.1-152.6,147.2s69.3,147.8,152.6,147.8c83.2,0,151.5-65.6,151.5-147.8
				S1946.6,504.2,1863.4,504.2L1863.4,504.2z"/>
		</defs>
		<defs>
			<path id="SVGID_78_" d="M2276.7,720.3h-97.6v117.9h-42.7V464.8h140.3c92.3,0,145.6,45.9,145.6,125.4
				C2422.4,672.8,2369,720.3,2276.7,720.3L2276.7,720.3z"/>
		</defs>
		<defs>
			<path id="SVGID_79_" d="M2275.1,505.8h-96v173.4h96c67.2,0,106.1-29.9,106.1-88C2381.3,534.7,2342.4,505.8,2275.1,505.8
				L2275.1,505.8z"/>
		</defs>
		<defs>
			<polygon id="SVGID_80_" points="2587.2,558.1 2587.2,622.6 2753.1,622.6 2753.1,716.5 2587.2,716.5 2587.2,838.1 2463.4,838.1 
				2463.4,464.2 2764.3,464.2 2764.3,558.1 			"/>
		</defs>
		<defs>
			<path id="SVGID_81_" d="M2986.7,843.5c-119,0-205.4-81.1-205.4-192.6c0-110.9,86.4-190.4,205.4-190.4s205.4,80,205.4,190.4
				C3192.1,761.9,3105.7,843.5,2986.7,843.5L2986.7,843.5z"/>
		</defs>
		<defs>
			<path id="SVGID_82_" d="M2988.3,563.5c-43.2,0-80,36.8-80,88s37.3,89.1,80,89.1s76.8-37.9,76.8-89.1
				C3065.1,600.3,3031,563.5,2988.3,563.5L2988.3,563.5z"/>
		</defs>
		<defs>
			<path id="SVGID_83_" d="M3413.4,843.5c-119,0-205.4-81.1-205.4-192.6c0-110.9,86.4-190.4,205.4-190.4s205.4,80,205.4,190.4
				C3618.8,761.9,3532.4,843.5,3413.4,843.5L3413.4,843.5z"/>
		</defs>
		<clipPath id="SVGID_84_">
			<use xlink:href="#SVGID_75_"  style="overflow:visible;"/>
		</clipPath>
		<clipPath id="SVGID_85_" class="st28">
			<use xlink:href="#SVGID_76_"  style="overflow:visible;"/>
		</clipPath>
		<clipPath id="SVGID_86_" class="st29">
			<use xlink:href="#SVGID_77_"  style="overflow:visible;"/>
		</clipPath>
		<clipPath id="SVGID_87_" class="st30">
			<use xlink:href="#SVGID_78_"  style="overflow:visible;"/>
		</clipPath>
		<clipPath id="SVGID_88_" class="st31">
			<use xlink:href="#SVGID_79_"  style="overflow:visible;"/>
		</clipPath>
		<clipPath id="SVGID_89_" class="st32">
			<use xlink:href="#SVGID_80_"  style="overflow:visible;"/>
		</clipPath>
		<clipPath id="SVGID_90_" class="st33">
			<use xlink:href="#SVGID_81_"  style="overflow:visible;"/>
		</clipPath>
		<clipPath id="SVGID_91_" class="st34">
			<use xlink:href="#SVGID_82_"  style="overflow:visible;"/>
		</clipPath>
		<clipPath id="SVGID_92_" class="st35">
			<use xlink:href="#SVGID_83_"  style="overflow:visible;"/>
		</clipPath>
	</g>
	<g>
		<defs>
			<polygon id="SVGID_93_" points="1542.8,505.8 1542.8,838.1 1500.1,838.1 1500.1,505.8 1378.5,505.8 1378.5,464.7 1664.9,464.7 
				1664.9,505.8 			"/>
		</defs>
		<defs>
			<path id="SVGID_94_" d="M1863.4,840.3c-109.4,0-195.8-83.7-195.8-188.8c0-105.6,86.4-187.8,195.8-187.8
				c108.8,0,195.2,82.7,195.2,187.8S1972.2,840.3,1863.4,840.3L1863.4,840.3z"/>
		</defs>
		<defs>
			<path id="SVGID_95_" d="M1863.4,504.2c-83.2,0-152.6,65.1-152.6,147.2s69.3,147.8,152.6,147.8c83.2,0,151.5-65.6,151.5-147.8
				S1946.6,504.2,1863.4,504.2L1863.4,504.2z"/>
		</defs>
		<defs>
			<path id="SVGID_96_" d="M2276.7,720.3h-97.6v117.9h-42.7V464.8h140.3c92.3,0,145.6,45.9,145.6,125.4
				C2422.4,672.8,2369,720.3,2276.7,720.3L2276.7,720.3z"/>
		</defs>
		<defs>
			<path id="SVGID_97_" d="M2275.1,505.8h-96v173.4h96c67.2,0,106.1-29.9,106.1-88C2381.3,534.7,2342.4,505.8,2275.1,505.8
				L2275.1,505.8z"/>
		</defs>
		<defs>
			<polygon id="SVGID_98_" points="2587.2,558.1 2587.2,622.6 2753.1,622.6 2753.1,716.5 2587.2,716.5 2587.2,838.1 2463.4,838.1 
				2463.4,464.2 2764.3,464.2 2764.3,558.1 			"/>
		</defs>
		<defs>
			<path id="SVGID_99_" d="M2986.7,843.5c-119,0-205.4-81.1-205.4-192.6c0-110.9,86.4-190.4,205.4-190.4s205.4,80,205.4,190.4
				C3192.1,761.9,3105.7,843.5,2986.7,843.5L2986.7,843.5z"/>
		</defs>
		<defs>
			<path id="SVGID_100_" d="M2988.3,563.5c-43.2,0-80,36.8-80,88s37.3,89.1,80,89.1s76.8-37.9,76.8-89.1
				C3065.1,600.3,3031,563.5,2988.3,563.5L2988.3,563.5z"/>
		</defs>
		<defs>
			<path id="SVGID_101_" d="M3413.4,843.5c-119,0-205.4-81.1-205.4-192.6c0-110.9,86.4-190.4,205.4-190.4s205.4,80,205.4,190.4
				C3618.8,761.9,3532.4,843.5,3413.4,843.5L3413.4,843.5z"/>
		</defs>
		<defs>
			<path id="SVGID_102_" d="M3415,563.5c-43.2,0-80,36.8-80,88s37.3,89.1,80,89.1s76.8-37.9,76.8-89.1
				C3491.9,600.3,3457.7,563.5,3415,563.5L3415,563.5z"/>
		</defs>
		<clipPath id="SVGID_103_">
			<use xlink:href="#SVGID_93_"  style="overflow:visible;"/>
		</clipPath>
		<clipPath id="SVGID_104_" class="st36">
			<use xlink:href="#SVGID_94_"  style="overflow:visible;"/>
		</clipPath>
		<clipPath id="SVGID_105_" class="st37">
			<use xlink:href="#SVGID_95_"  style="overflow:visible;"/>
		</clipPath>
		<clipPath id="SVGID_106_" class="st38">
			<use xlink:href="#SVGID_96_"  style="overflow:visible;"/>
		</clipPath>
		<clipPath id="SVGID_107_" class="st39">
			<use xlink:href="#SVGID_97_"  style="overflow:visible;"/>
		</clipPath>
		<clipPath id="SVGID_108_" class="st40">
			<use xlink:href="#SVGID_98_"  style="overflow:visible;"/>
		</clipPath>
		<clipPath id="SVGID_109_" class="st41">
			<use xlink:href="#SVGID_99_"  style="overflow:visible;"/>
		</clipPath>
		<clipPath id="SVGID_110_" class="st42">
			<use xlink:href="#SVGID_100_"  style="overflow:visible;"/>
		</clipPath>
		<clipPath id="SVGID_111_" class="st43">
			<use xlink:href="#SVGID_101_"  style="overflow:visible;"/>
		</clipPath>
		<clipPath id="SVGID_112_" class="st44">
			<use xlink:href="#SVGID_102_"  style="overflow:visible;"/>
		</clipPath>
	</g>
	<g>
		<defs>
			<polygon id="SVGID_113_" points="1542.8,505.8 1542.8,838.1 1500.1,838.1 1500.1,505.8 1378.5,505.8 1378.5,464.7 1664.9,464.7 
				1664.9,505.8 			"/>
		</defs>
		<defs>
			<path id="SVGID_114_" d="M1863.4,840.3c-109.4,0-195.8-83.7-195.8-188.8c0-105.6,86.4-187.8,195.8-187.8
				c108.8,0,195.2,82.7,195.2,187.8S1972.2,840.3,1863.4,840.3L1863.4,840.3z"/>
		</defs>
		<defs>
			<path id="SVGID_115_" d="M1863.4,504.2c-83.2,0-152.6,65.1-152.6,147.2s69.3,147.8,152.6,147.8c83.2,0,151.5-65.6,151.5-147.8
				S1946.6,504.2,1863.4,504.2L1863.4,504.2z"/>
		</defs>
		<defs>
			<path id="SVGID_116_" d="M2276.7,720.3h-97.6v117.9h-42.7V464.8h140.3c92.3,0,145.6,45.9,145.6,125.4
				C2422.4,672.8,2369,720.3,2276.7,720.3L2276.7,720.3z"/>
		</defs>
		<defs>
			<path id="SVGID_117_" d="M2275.1,505.8h-96v173.4h96c67.2,0,106.1-29.9,106.1-88C2381.3,534.7,2342.4,505.8,2275.1,505.8
				L2275.1,505.8z"/>
		</defs>
		<defs>
			<polygon id="SVGID_118_" points="2587.2,558.1 2587.2,622.6 2753.1,622.6 2753.1,716.5 2587.2,716.5 2587.2,838.1 2463.4,838.1 
				2463.4,464.2 2764.3,464.2 2764.3,558.1 			"/>
		</defs>
		<defs>
			<path id="SVGID_119_" d="M2986.7,843.5c-119,0-205.4-81.1-205.4-192.6c0-110.9,86.4-190.4,205.4-190.4s205.4,80,205.4,190.4
				C3192.1,761.9,3105.7,843.5,2986.7,843.5L2986.7,843.5z"/>
		</defs>
		<defs>
			<path id="SVGID_120_" d="M2988.3,563.5c-43.2,0-80,36.8-80,88s37.3,89.1,80,89.1s76.8-37.9,76.8-89.1
				C3065.1,600.3,3031,563.5,2988.3,563.5L2988.3,563.5z"/>
		</defs>
		<defs>
			<path id="SVGID_121_" d="M3413.4,843.5c-119,0-205.4-81.1-205.4-192.6c0-110.9,86.4-190.4,205.4-190.4s205.4,80,205.4,190.4
				C3618.8,761.9,3532.4,843.5,3413.4,843.5L3413.4,843.5z"/>
		</defs>
		<defs>
			<path id="SVGID_122_" d="M3415,563.5c-43.2,0-80,36.8-80,88s37.3,89.1,80,89.1s76.8-37.9,76.8-89.1
				C3491.9,600.3,3457.7,563.5,3415,563.5L3415,563.5z"/>
		</defs>
		<defs>
			<path id="SVGID_123_" d="M3815.6,838.2h-162.2v-374h167c123.2,0,203.2,73.1,203.2,186.7C4023.7,764.6,3942.1,838.2,3815.6,838.2
				L3815.6,838.2z"/>
		</defs>
		<clipPath id="SVGID_124_">
			<use xlink:href="#SVGID_113_"  style="overflow:visible;"/>
		</clipPath>
		<clipPath id="SVGID_125_" class="st45">
			<use xlink:href="#SVGID_114_"  style="overflow:visible;"/>
		</clipPath>
		<clipPath id="SVGID_126_" class="st46">
			<use xlink:href="#SVGID_115_"  style="overflow:visible;"/>
		</clipPath>
		<clipPath id="SVGID_127_" class="st47">
			<use xlink:href="#SVGID_116_"  style="overflow:visible;"/>
		</clipPath>
		<clipPath id="SVGID_128_" class="st48">
			<use xlink:href="#SVGID_117_"  style="overflow:visible;"/>
		</clipPath>
		<clipPath id="SVGID_129_" class="st49">
			<use xlink:href="#SVGID_118_"  style="overflow:visible;"/>
		</clipPath>
		<clipPath id="SVGID_130_" class="st50">
			<use xlink:href="#SVGID_119_"  style="overflow:visible;"/>
		</clipPath>
		<clipPath id="SVGID_131_" class="st51">
			<use xlink:href="#SVGID_120_"  style="overflow:visible;"/>
		</clipPath>
		<clipPath id="SVGID_132_" class="st52">
			<use xlink:href="#SVGID_121_"  style="overflow:visible;"/>
		</clipPath>
		<clipPath id="SVGID_133_" class="st53">
			<use xlink:href="#SVGID_122_"  style="overflow:visible;"/>
		</clipPath>
		<clipPath id="SVGID_134_" class="st54">
			<use xlink:href="#SVGID_123_"  style="overflow:visible;"/>
		</clipPath>
	</g>
</g>
<linearGradient id="SVGID_135_" gradientUnits="userSpaceOnUse" x1="13260.209" y1="1758.3406" x2="14457.7529" y2="1758.3406" gradientTransform="matrix(-1 0 0 -1 14481.248 2417.2905)">
	<stop  offset="0" style="stop-color:#F9AE3B"/>
	<stop  offset="1" style="stop-color:#D2145A"/>
</linearGradient>
<path class="st55" d="M865.1,166.1c-151.4-77.5-334.6-77.5-486,0c-39.8,20.3-63-12.3-23.9-34.8c163.7-95.6,370.1-95.6,533.8,0
	C928.1,153.8,904.9,186.3,865.1,166.1L865.1,166.1z M182.8,231.3c64.5-63.8,344.8,42.7,251.3,204.2l191.2,181.1l197-188.3
	c-42-80.4,5.8-122.4,61.6-163l108-83.3c23.2-17.4,44.2-2.2,25.3,17.4L890.5,331.2c-11.6,12.3,18.1,41.3,29.7,28.2L1044,231.3
	c10.1-10.9,23.2-9.4,30.4-2.9c7.2,7.3,8.7,19.6-1.4,30.4L949.1,387c-12.3,13,18.1,41.3,29.7,29l126.7-131.1
	c18.8-19.6,34.8,0.7,18.8,24.6l-79.7,110.8c-41.3,61.6-100,107.2-170.2,63c-68.8,63-125.3,120.2-188.3,188.3l318.7,291.9
	c92.7-96.3,149.9-226.7,149.9-370.8c0-56.5-8.7-110.8-24.6-162.3c-13.8-42,26.8-42.7,42.7-5.8c166.6,389.7-118.1,833.7-550.5,833.7
	c-433.1,0-717.1-444-550.5-833.7c15.2-37,55.8-36.2,42,5.8C98,481.9,89.4,536.2,89.4,592.7c0,145.6,58.7,277.4,153.6,373.8
	L528.3,705l63.7,68.1c-28.8,30.6-57.4,61-84.6,90.1C415,962,484,1124.3,619.3,1125.1c1,0,2.1,0,3.1,0c3.1,0,6.2,0,9.2-0.1
	c134.8-2.3,203.9-162.2,112.4-261.3l-72.4-78.4L626,736l-60-65.1l-33.3-36.2L387.1,482.6C225.5,576,119.1,295.7,182.8,231.3
	L182.8,231.3z"/>
</svg>
