<svg version="1.1" id="Слой_1" xmlns="http://www.w3.org/2000/svg" xmlns:xlink="http://www.w3.org/1999/xlink" x="0px" y="0px"
	 viewBox="0 0 566.9 107.9" style="enable-background:new 0 0 566.9 107.9;" xml:space="preserve" width="300px">
<g>
	<g>
		<path d="M87.8,21.8c4.4-1.8,9-2.7,13.8-2.7c4.6,0,9.2,0.9,13.8,2.7c4.3,1.9,8,4.4,11.2,7.6c0.9,1,1.4,2.1,1.4,3.5
			c0,1.3-0.5,2.5-1.4,3.5c-1,0.9-2.1,1.4-3.5,1.4c-1.3,0-2.5-0.5-3.5-1.4c-2.4-2.5-5.2-4.3-8.3-5.6c-3.1-1.3-6.4-1.9-9.8-1.9
			c-3.5,0-6.7,0.6-9.8,1.9c-3.1,1.3-5.9,3.1-8.4,5.6c-2.4,2.4-4.3,5.2-5.6,8.3c-1.3,3.1-2,6.4-2,9.8c0,3.5,0.6,6.7,2,9.8
			c1.3,3.1,3.2,5.9,5.6,8.4c2.5,2.4,5.3,4.2,8.4,5.5s6.4,1.9,9.8,1.9c3.5,0,6.7-0.6,9.8-1.9c3.1-1.3,5.8-3.1,8.3-5.5
			c1-1,2.1-1.5,3.5-1.5c1.3,0,2.5,0.5,3.5,1.5c0.9,0.9,1.4,2.1,1.4,3.4s-0.5,2.5-1.4,3.4c-3.2,3.3-6.9,5.8-11.2,7.6
			c-2.2,0.9-4.5,1.6-6.8,2.1s-4.6,0.7-7,0.7c-4.9,0-9.5-0.9-13.8-2.7c-4.2-1.7-7.9-4.2-11.3-7.6c-3.3-3.3-5.8-7-7.5-11.2
			c-1.9-4.4-2.8-9-2.8-13.8c0-4.7,0.9-9.3,2.8-13.8c1.8-4.2,4.3-8,7.5-11.2C79.9,26.1,83.7,23.6,87.8,21.8z"/>
		<path d="M151.9,21.8c4.6-1.8,9.1-2.7,13.8-2.7c4.6,0,9.2,0.9,13.8,2.7c4.3,1.9,8,4.4,11.2,7.6s5.7,6.9,7.6,11.2
			c1.8,4.3,2.7,8.9,2.7,13.8s-0.9,9.5-2.7,13.8c-1.9,4.3-4.4,8-7.6,11.2c-3.2,3.3-6.9,5.8-11.2,7.6c-4.3,1.8-8.9,2.7-13.8,2.7
			s-9.5-0.9-13.8-2.7c-4.3-1.8-8-4.4-11.2-7.6c-3.3-3.3-5.9-7.1-7.6-11.2c-1.8-4.2-2.7-8.8-2.7-13.8c0-4.9,0.9-9.5,2.7-13.8
			c1.8-4.2,4.3-7.9,7.6-11.2C143.8,26.2,147.6,23.6,151.9,21.8z M147.5,72.5c2.5,2.4,5.3,4.2,8.4,5.5c3.1,1.3,6.4,1.9,9.8,1.9
			c3.5,0,6.7-0.6,9.8-1.9s5.8-3.1,8.3-5.5c2.5-2.5,4.3-5.3,5.6-8.4c1.3-3.1,1.9-6.4,1.9-9.8c0-3.5-0.6-6.7-1.9-9.8
			c-1.3-3.1-3.1-5.8-5.6-8.3c-2.4-2.5-5.2-4.3-8.3-5.6c-3.1-1.3-6.4-1.9-9.8-1.9c-3.5,0-6.7,0.6-9.8,1.9s-5.9,3.1-8.4,5.6
			c-2.4,2.4-4.2,5.2-5.5,8.3s-1.9,6.4-1.9,9.8c0,3.5,0.6,6.7,1.9,9.8C143.2,67.3,145,70.1,147.5,72.5z"/>
		<path d="M217.9,20.6c1-0.4,2-0.5,2.9-0.2c1,0.3,1.8,0.8,2.5,1.6c5.6,6.7,11,13.1,16.1,19.2c2.2,2.6,4.5,5.3,6.8,8.1
			c2.3,2.8,4.6,5.4,6.7,8c2.2,2.6,4.2,5,6.2,7.3c2,2.3,3.7,4.3,5.2,6V25.1c0-1.3,0.5-2.4,1.4-3.4s2.1-1.5,3.5-1.5s2.5,0.5,3.5,1.5
			c0.9,1,1.4,2.1,1.4,3.4v58.6c0,1-0.3,2-0.9,2.8s-1.4,1.4-2.3,1.7c-0.9,0.4-1.9,0.5-2.8,0.2s-1.8-0.8-2.5-1.6
			c-5.6-6.7-11-13.1-16.1-19.2c-2.2-2.6-4.5-5.3-6.8-8s-4.6-5.4-6.8-8s-4.3-5-6.3-7.3s-3.6-4.3-5.1-6v45.4c0,1.4-0.5,2.5-1.5,3.5
			c-1,0.9-2.1,1.4-3.4,1.4c-1.4,0-2.5-0.5-3.5-1.4c-0.9-0.9-1.4-2.1-1.4-3.5V25.1c0-1,0.3-1.9,0.9-2.7
			C216.3,21.5,217,20.9,217.9,20.6z"/>
		<path d="M337.6,21.7c1,1,1.5,2.1,1.5,3.4c0,1.4-0.5,2.5-1.5,3.5c-1,0.9-2.1,1.4-3.4,1.4h-18.9v53.7c0,1.4-0.5,2.5-1.4,3.5
			c-0.9,0.9-2.1,1.4-3.5,1.4s-2.5-0.5-3.5-1.4c-0.9-0.9-1.4-2.1-1.4-3.5V30h-18.9c-1.4,0-2.5-0.5-3.5-1.4c-0.9-0.9-1.4-2.1-1.4-3.5
			c0-1.3,0.5-2.4,1.4-3.4s2.1-1.5,3.5-1.5h47.7C335.4,20.2,336.6,20.7,337.6,21.7z"/>
		<path d="M348.9,21.7c0.9-1,2.1-1.5,3.5-1.5s2.5,0.5,3.5,1.5c0.9,1,1.4,2.1,1.4,3.4v58.6c0,1.4-0.5,2.5-1.4,3.5
			c-0.9,0.9-2.1,1.4-3.5,1.4s-2.5-0.5-3.5-1.4c-0.9-0.9-1.4-2.1-1.4-3.5V25.1C347.5,23.8,347.9,22.6,348.9,21.7z"/>
		<path d="M392.8,21.8c4.4-1.8,9-2.7,13.8-2.7c4.6,0,9.2,0.9,13.8,2.7c4.3,1.9,8,4.4,11.2,7.6c0.9,1,1.4,2.1,1.4,3.5
			c0,1.3-0.5,2.5-1.4,3.5c-1,0.9-2.1,1.4-3.5,1.4c-1.3,0-2.5-0.5-3.5-1.4c-2.4-2.5-5.2-4.3-8.3-5.6c-3.1-1.3-6.4-1.9-9.8-1.9
			c-3.5,0-6.7,0.6-9.8,1.9c-3.1,1.3-5.9,3.1-8.4,5.6c-2.4,2.4-4.3,5.2-5.6,8.3c-1.3,3.1-2,6.4-2,9.8c0,3.5,0.7,6.7,2,9.8
			s3.2,5.9,5.6,8.4c2.5,2.4,5.3,4.2,8.4,5.5s6.4,1.9,9.8,1.9c3.1,0,6.1-0.5,8.9-1.6c2.8-1,5.4-2.6,7.7-4.6V61.2
			c0-1.4,0.5-2.5,1.5-3.5c1-0.9,2.1-1.4,3.4-1.4c1.4,0,2.5,0.5,3.5,1.4c0.9,0.9,1.4,2.1,1.4,3.5V76c0,1.4-0.5,2.5-1.4,3.4
			c-3.2,3.3-6.9,5.8-11.2,7.6c-2.2,0.9-4.5,1.6-6.8,2.1s-4.6,0.7-7,0.7c-4.9,0-9.5-0.9-13.8-2.7c-4.2-1.7-7.9-4.2-11.3-7.6
			c-3.3-3.3-5.8-7-7.5-11.2c-1.9-4.4-2.8-9-2.8-13.8c0-4.7,0.9-9.3,2.8-13.8c1.8-4.2,4.3-8,7.5-11.2
			C384.9,26.1,388.7,23.6,392.8,21.8z"/>
		<path d="M464.7,21.8c4.6-1.8,9.1-2.7,13.8-2.7c4.6,0,9.2,0.9,13.8,2.7c4.3,1.9,8,4.4,11.2,7.6s5.7,6.9,7.6,11.2
			c1.8,4.3,2.7,8.9,2.7,13.8s-0.9,9.5-2.7,13.8c-1.9,4.3-4.4,8-7.6,11.2c-3.2,3.3-6.9,5.8-11.2,7.6c-4.3,1.8-8.9,2.7-13.8,2.7
			s-9.5-0.9-13.8-2.7c-4.3-1.8-8-4.4-11.2-7.6c-3.3-3.3-5.9-7.1-7.6-11.2c-1.8-4.2-2.7-8.8-2.7-13.8c0-4.9,0.9-9.5,2.7-13.8
			c1.8-4.2,4.3-7.9,7.6-11.2C456.7,26.2,460.4,23.6,464.7,21.8z M460.3,72.5c2.5,2.4,5.3,4.2,8.4,5.5s6.4,1.9,9.8,1.9
			c3.5,0,6.7-0.6,9.8-1.9c3.1-1.3,5.8-3.1,8.3-5.5c2.5-2.5,4.3-5.3,5.6-8.4c1.3-3.1,1.9-6.4,1.9-9.8c0-3.5-0.6-6.7-1.9-9.8
			s-3.1-5.8-5.6-8.3c-2.4-2.5-5.2-4.3-8.3-5.6c-3.1-1.3-6.4-1.9-9.8-1.9c-3.5,0-6.7,0.6-9.8,1.9c-3.1,1.3-5.9,3.1-8.4,5.6
			c-2.4,2.4-4.2,5.2-5.5,8.3s-1.9,6.4-1.9,9.8c0,3.5,0.6,6.7,1.9,9.8C456.1,67.3,457.9,70.1,460.3,72.5z"/>
	</g>
	<g>
		<path d="M26.3,54.4c0-6.2,4.2-10.5,10-10.5s9.8,4.3,9.8,10.5c0,6-3.8,10.5-10,10.5C30.3,64.9,26.3,60.4,26.3,54.4z"/>
	</g>
	<g>
		<path d="M531.1,54.4c0-6.2,4.2-10.5,10-10.5s9.8,4.3,9.8,10.5c0,6-3.8,10.5-10,10.5C535.1,64.9,531.1,60.4,531.1,54.4z"/>
	</g>
</g>
</svg>
