<svg width="57" height="65" viewBox="0 0 57 65" fill="none" xmlns="http://www.w3.org/2000/svg">
<path fill-rule="evenodd" clip-rule="evenodd" d="M0 0.0678711L5.1358 57.6699L28.183 64.0679L51.293 57.6605L56.4343 0.0678711H0ZM46.9154 54.0364L28.2645 59.1673L28.2645 51.8357L28.2084 51.849L13.7123 47.8352L12.7225 36.7501H19.8148L20.3296 42.3769L28.2099 44.4932L28.2645 44.485V33.0819L12.3745 33.0819L11.7558 26.0276V26.0276L28.2645 18.9619L28.2646 18.4739H11.1276L10.5016 11.4196H28.1929H28.2646L28.2645 4.86493H51.2852L46.9154 54.0364Z" fill="white" fill-opacity="0.5"/>
<path fill-rule="evenodd" clip-rule="evenodd" d="M29.4032 18.4737L28.2645 18.9617V26.0274H28.2645V33.0817H36.8922L36.108 42.3046L28.2645 44.4909V51.841L42.7125 47.8273L44.6151 26.0274H28.2646L45.2565 18.4737L45.8633 11.4194H28.2645V18.3853V18.4737H29.4032Z" fill="white" fill-opacity="0.5"/>
</svg>
