<svg version="1.1" id="Слой_1" xmlns="http://www.w3.org/2000/svg" xmlns:xlink="http://www.w3.org/1999/xlink" x="0px" y="0px"
	 viewBox="0 0 274.7 95" style="enable-background:new 0 0 274.7 95;" xml:space="preserve" width="300">
<style type="text/css">
	.st0{fill:#88C8EA;}
	.st1{fill:#2FA1D6;}
	.st2{fill:#00AE76;}
	.st3{fill:#41719B;}
	.st4{fill:#5361A0;}
	.st5{fill:#453B6A;}
	.st6{fill:#C9609B;}
	.st7{fill:#00AAA6;}
	.st8{fill:#535094;}
	.st9{fill:#775294;}
	.st10{fill:#ED698B;}
	.st11{fill:#497FB8;}
	.st12{fill:#2AB9E9;}
</style>
<image style="display:none;overflow:visible;" width="180" height="81" xlink:href="DCF08EAC.jpg"  transform="matrix(1 0 0 1 872.7156 -81.7941)">
</image>
<g>
	<polygon class="st0" points="0,21 26,21 13,0 	"/>
	<polygon class="st1" points="15,46 41,46 28,25 	"/>
	<polygon class="st2" points="0,70 26,70 13,49 	"/>
	<polygon class="st3" points="15,95 41,95 28,74 	"/>
	<polygon class="st4" points="29.4,70 55.4,70 42.4,49 	"/>
	<polygon class="st5" points="44.3,94 70.3,94 57.3,73 	"/>
	<polygon class="st6" points="58.9,70 84.9,70 71.9,49 	"/>
	<polygon class="st7" points="26,72 0,72 13,93 	"/>
	<polygon class="st8" points="55.4,72 29.4,72 42.4,93 	"/>
	<polygon class="st9" points="84.6,72 58.6,72 71.6,93 	"/>
	<polygon class="st10" points="98.9,48 72.9,48 85.9,69 	"/>
	<polygon class="st11" points="41,48 15,48 28,69 	"/>
	<polygon class="st12" points="26,23 0,23 13,44 	"/>
	<g>
		<path d="M115,65.6c0-0.4,0.2-0.6,0.6-0.6h13.9c1.8,0,3.1,0.5,4,1.4c0.9,1,1.4,2.3,1.4,4.1v5.4c0,1.8-0.5,3.1-1.4,4.1
			c-0.9,1-2.3,1.4-4,1.4h-13.9c-0.4,0-0.6-0.2-0.6-0.6V65.6z M132.3,70.8c0-1.2-0.3-2-0.9-2.6c-0.6-0.6-1.5-0.9-2.6-0.9h-11.4v12
			h11.4c1.1,0,2-0.3,2.6-0.9c0.6-0.6,0.9-1.5,0.9-2.6V70.8z"/>
		<path d="M144.6,80.9l-8.8-15.3c-0.1-0.1-0.1-0.3,0-0.4c0.1-0.1,0.2-0.2,0.4-0.2h1.6c0.2,0,0.4,0,0.5,0.1c0.1,0.1,0.2,0.2,0.3,0.3
			l7.8,13.8l7.8-13.8c0.1-0.1,0.2-0.2,0.3-0.3c0.1-0.1,0.3-0.1,0.5-0.1h1.5c0.2,0,0.3,0.1,0.3,0.2c0.1,0.1,0.1,0.3,0,0.4l-8.8,15.3
			c-0.2,0.4-0.5,0.5-1,0.5h-1.3C145.1,81.5,144.8,81.3,144.6,80.9z"/>
		<path d="M185.9,77.4c0,0.8-0.1,1.4-0.3,1.9c-0.2,0.5-0.5,0.9-1,1.3c-0.4,0.3-0.9,0.6-1.5,0.7c-0.6,0.1-1.3,0.2-2,0.2h-10.5
			c-1.5,0-2.6-0.4-3.4-1.2c-0.8-0.8-1.2-2-1.2-3.6v-6.9c0-1.5,0.4-2.7,1.2-3.6c0.8-0.8,2-1.2,3.4-1.2h14c0.4,0,0.6,0.2,0.6,0.6v1.1
			c0,0.4-0.2,0.6-0.6,0.6h-13.5c-0.9,0-1.6,0.2-2.1,0.7c-0.5,0.5-0.7,1.2-0.7,2.1v6.3c0,0.9,0.2,1.6,0.7,2.1
			c0.5,0.5,1.2,0.7,2.1,0.7h9.6c0.9,0,1.6-0.2,2-0.5c0.4-0.3,0.6-0.9,0.6-1.7v-2.7h-6c-0.4,0-0.6-0.2-0.6-0.6v-1.1
			c0-0.4,0.2-0.6,0.6-0.6h7.9c0.4,0,0.6,0.2,0.6,0.6V77.4z"/>
		<path d="M190.8,80.9c0,0.4-0.2,0.6-0.6,0.6h-1.4c-0.4,0-0.6-0.2-0.6-0.6V65.6c0-0.4,0.2-0.6,0.6-0.6h13.8c1.6,0,2.8,0.3,3.7,1
			c0.9,0.7,1.3,1.8,1.3,3.4v0.8c0,1.1-0.2,2-0.7,2.7c-0.4,0.6-1.1,1.1-1.9,1.4c0.8,0.3,1.5,0.7,1.9,1.4c0.4,0.6,0.7,1.5,0.7,2.7v2.7
			c0,0.4-0.2,0.6-0.6,0.6h-1.4c-0.4,0-0.5-0.2-0.5-0.6v-2.8c0-0.9-0.2-1.6-0.7-2.1c-0.5-0.4-1.3-0.7-2.4-0.7h-11.3V80.9z
			 M205.2,69.7c0-0.9-0.2-1.5-0.6-1.9c-0.4-0.4-1.1-0.6-2.2-0.6h-11.5v5.8h11.5c1,0,1.7-0.2,2.2-0.6c0.4-0.4,0.6-1,0.6-1.9V69.7z"/>
		<path d="M214.6,81.5c-1.5,0-2.6-0.4-3.4-1.2c-0.8-0.8-1.2-2-1.2-3.6v-6.9c0-1.5,0.4-2.7,1.2-3.6c0.8-0.8,2-1.2,3.4-1.2h10.9
			c1.5,0,2.7,0.4,3.5,1.2c0.8,0.8,1.2,2,1.2,3.6v6.9c0,1.5-0.4,2.7-1.2,3.6c-0.8,0.8-2,1.2-3.5,1.2H214.6z M225,79.2
			c1.8,0,2.8-0.9,2.8-2.8v-6.3c0-1.9-0.9-2.8-2.8-2.8h-9.8c-0.9,0-1.6,0.2-2.1,0.7c-0.5,0.5-0.7,1.2-0.7,2.1v6.3
			c0,0.9,0.2,1.6,0.7,2.1c0.5,0.5,1.2,0.7,2.1,0.7H225z"/>
		<path d="M251.4,80.2c-0.8,0.8-2,1.2-3.4,1.2h-10.4c-1.5,0-2.7-0.4-3.5-1.2c-0.8-0.8-1.2-2-1.2-3.6V65.6c0-0.4,0.2-0.6,0.6-0.6h1.4
			c0.4,0,0.6,0.2,0.6,0.6v10.8c0,1.9,0.9,2.8,2.8,2.8h9.2c1.8,0,2.8-0.9,2.8-2.8V65.6c0-0.4,0.2-0.6,0.6-0.6h1.4
			c0.4,0,0.5,0.2,0.5,0.6v11.1C252.6,78.2,252.2,79.4,251.4,80.2z"/>
		<path d="M255.5,65.6c0-0.4,0.2-0.6,0.6-0.6h13.8c1.6,0,2.8,0.4,3.6,1.1c0.8,0.7,1.2,1.9,1.2,3.5v1.2c0,1.6-0.4,2.8-1.2,3.5
			c-0.8,0.7-2,1.1-3.6,1.1H258v5.4c0,0.4-0.2,0.6-0.6,0.6H256c-0.4,0-0.6-0.2-0.6-0.6V65.6z M272.2,69.8c0-0.9-0.2-1.6-0.7-2
			c-0.4-0.4-1.2-0.6-2.2-0.6H258v6.1h11.4c1,0,1.8-0.2,2.2-0.6c0.4-0.4,0.7-1.1,0.7-2V69.8z"/>
	</g>
	<g>
		<path d="M123.5,93.3c0,0.3,0,0.6-0.1,0.8c-0.1,0.2-0.2,0.4-0.4,0.5c-0.2,0.1-0.4,0.2-0.7,0.3c-0.3,0.1-0.6,0.1-0.9,0.1h-4.6
			c-0.7,0-1.2-0.2-1.5-0.5c-0.4-0.4-0.5-0.9-0.5-1.5V90c0-0.7,0.2-1.2,0.5-1.5c0.4-0.4,0.9-0.5,1.5-0.5h6.2c0.2,0,0.3,0.1,0.3,0.2
			v0.5c0,0.2-0.1,0.3-0.3,0.3H117c-0.4,0-0.7,0.1-0.9,0.3c-0.2,0.2-0.3,0.5-0.3,0.9v2.7c0,0.4,0.1,0.7,0.3,0.9
			c0.2,0.2,0.5,0.3,0.9,0.3h4.2c0.4,0,0.7-0.1,0.9-0.2c0.2-0.1,0.3-0.4,0.3-0.7V92h-2.6c-0.2,0-0.2-0.1-0.2-0.2v-0.5
			c0-0.2,0.1-0.2,0.2-0.2h3.5c0.2,0,0.3,0.1,0.3,0.2V93.3z"/>
		<path d="M125.7,94.8c0,0.2-0.1,0.2-0.3,0.2h-0.6c-0.2,0-0.2-0.1-0.2-0.2v-6.5c0-0.2,0.1-0.2,0.2-0.2h6.1c0.7,0,1.2,0.1,1.6,0.4
			c0.4,0.3,0.6,0.8,0.6,1.4v0.3c0,0.5-0.1,0.9-0.3,1.1c-0.2,0.3-0.5,0.5-0.8,0.6c0.4,0.1,0.6,0.3,0.8,0.6c0.2,0.3,0.3,0.6,0.3,1.1
			v1.1c0,0.2-0.1,0.2-0.3,0.2h-0.6c-0.2,0-0.2-0.1-0.2-0.2v-1.2c0-0.4-0.1-0.7-0.3-0.9c-0.2-0.2-0.6-0.3-1-0.3h-5V94.8z M132.1,90
			c0-0.4-0.1-0.6-0.3-0.8c-0.2-0.2-0.5-0.2-1-0.2h-5.1v2.5h5.1c0.4,0,0.8-0.1,1-0.2c0.2-0.2,0.3-0.4,0.3-0.8V90z"/>
		<path d="M136.2,95c-0.7,0-1.2-0.2-1.5-0.5c-0.4-0.4-0.5-0.9-0.5-1.5V90c0-0.7,0.2-1.2,0.5-1.5c0.4-0.4,0.9-0.5,1.5-0.5h4.8
			c0.7,0,1.2,0.2,1.5,0.5c0.4,0.4,0.5,0.9,0.5,1.5V93c0,0.7-0.2,1.2-0.5,1.5c-0.4,0.4-0.9,0.5-1.5,0.5H136.2z M140.8,94.1
			c0.8,0,1.2-0.4,1.2-1.2v-2.7c0-0.8-0.4-1.2-1.2-1.2h-4.3c-0.4,0-0.7,0.1-0.9,0.3c-0.2,0.2-0.3,0.5-0.3,0.9v2.7
			c0,0.4,0.1,0.7,0.3,0.9c0.2,0.2,0.5,0.3,0.9,0.3H140.8z"/>
		<path d="M152.5,94.5c-0.4,0.4-0.9,0.5-1.5,0.5h-4.6c-0.7,0-1.2-0.2-1.5-0.5c-0.4-0.4-0.5-0.9-0.5-1.5v-4.7c0-0.2,0.1-0.2,0.3-0.2
			h0.6c0.2,0,0.2,0.1,0.2,0.2v4.6c0,0.8,0.4,1.2,1.2,1.2h4.1c0.8,0,1.2-0.4,1.2-1.2v-4.6c0-0.2,0.1-0.2,0.3-0.2h0.6
			c0.2,0,0.2,0.1,0.2,0.2V93C153,93.6,152.9,94.1,152.5,94.5z"/>
		<path d="M154.3,88.2c0-0.2,0.1-0.2,0.2-0.2h6.1c0.7,0,1.2,0.2,1.6,0.5c0.4,0.3,0.6,0.8,0.6,1.5v0.5c0,0.7-0.2,1.2-0.6,1.5
			c-0.4,0.3-0.9,0.5-1.6,0.5h-5.2v2.3c0,0.2-0.1,0.2-0.3,0.2h-0.6c-0.2,0-0.2-0.1-0.2-0.2V88.2z M161.7,90.1c0-0.4-0.1-0.7-0.3-0.8
			c-0.2-0.2-0.5-0.3-1-0.3h-5v2.6h5c0.5,0,0.8-0.1,1-0.3c0.2-0.2,0.3-0.5,0.3-0.8V90.1z"/>
		<path d="M169,95c-0.7,0-1.2-0.2-1.5-0.5c-0.4-0.4-0.5-0.9-0.5-1.5V90c0-0.7,0.2-1.2,0.5-1.5c0.4-0.4,0.9-0.5,1.5-0.5h4.8
			c0.7,0,1.2,0.2,1.5,0.5c0.4,0.4,0.5,0.9,0.5,1.5V93c0,0.7-0.2,1.2-0.5,1.5c-0.4,0.4-0.9,0.5-1.5,0.5H169z M173.6,94.1
			c0.8,0,1.2-0.4,1.2-1.2v-2.7c0-0.8-0.4-1.2-1.2-1.2h-4.3c-0.4,0-0.7,0.1-0.9,0.3c-0.2,0.2-0.3,0.5-0.3,0.9v2.7
			c0,0.4,0.1,0.7,0.3,0.9c0.2,0.2,0.5,0.3,0.9,0.3H173.6z"/>
		<path d="M178.2,94.8c0,0.2-0.1,0.2-0.2,0.2h-0.6c-0.2,0-0.3-0.1-0.3-0.2V90c0-0.7,0.2-1.2,0.5-1.5c0.4-0.4,0.9-0.5,1.5-0.5h6.1
			c0.2,0,0.3,0.1,0.3,0.2v0.5c0,0.2-0.1,0.3-0.3,0.3h-5.9c-0.8,0-1.2,0.4-1.2,1.2v0.9h6.3c0.2,0,0.3,0.1,0.3,0.3v0.4
			c0,0.2-0.1,0.3-0.3,0.3h-6.3V94.8z"/>
		<path d="M190.3,94.5c-0.4-0.4-0.5-0.9-0.5-1.5V90c0-0.7,0.2-1.2,0.5-1.5c0.4-0.4,0.9-0.5,1.5-0.5h6.1c0.2,0,0.2,0.1,0.2,0.2v0.5
			c0,0.2-0.1,0.3-0.2,0.3h-5.8c-0.4,0-0.7,0.1-0.9,0.3c-0.2,0.2-0.3,0.5-0.3,0.9v2.7c0,0.4,0.1,0.7,0.3,0.9c0.2,0.2,0.5,0.3,0.9,0.3
			h5.8c0.2,0,0.2,0.1,0.2,0.2v0.5c0,0.2-0.1,0.2-0.2,0.2h-6.1C191.1,95,190.6,94.8,190.3,94.5z"/>
		<path d="M201.2,95c-0.7,0-1.2-0.2-1.5-0.5c-0.4-0.4-0.5-0.9-0.5-1.5V90c0-0.7,0.2-1.2,0.5-1.5c0.4-0.4,0.9-0.5,1.5-0.5h4.8
			c0.7,0,1.2,0.2,1.5,0.5c0.4,0.4,0.5,0.9,0.5,1.5V93c0,0.7-0.2,1.2-0.5,1.5c-0.4,0.4-0.9,0.5-1.5,0.5H201.2z M205.8,94.1
			c0.8,0,1.2-0.4,1.2-1.2v-2.7c0-0.8-0.4-1.2-1.2-1.2h-4.3c-0.4,0-0.7,0.1-0.9,0.3c-0.2,0.2-0.3,0.5-0.3,0.9v2.7
			c0,0.4,0.1,0.7,0.3,0.9c0.2,0.2,0.5,0.3,0.9,0.3H205.8z"/>
		<path d="M214.6,89.3c-0.2-0.2-0.5-0.3-0.9-0.3h-2.1c-0.8,0-1.2,0.4-1.2,1.2v4.6c0,0.2-0.1,0.2-0.2,0.2h-0.6
			c-0.2,0-0.3-0.1-0.3-0.2V90c0-0.7,0.2-1.2,0.5-1.5c0.4-0.4,0.9-0.5,1.5-0.5h2.3c0.9,0,1.5,0.3,1.8,1c0.3-0.6,0.9-1,1.8-1h2.3
			c0.7,0,1.2,0.2,1.5,0.5c0.4,0.4,0.5,0.9,0.5,1.5v4.7c0,0.2-0.1,0.2-0.2,0.2h-0.6c-0.2,0-0.2-0.1-0.2-0.2v-4.6
			c0-0.4-0.1-0.7-0.3-0.9c-0.2-0.2-0.5-0.3-0.9-0.3h-2.1c-0.4,0-0.7,0.1-0.9,0.3c-0.2,0.2-0.3,0.5-0.3,0.9v4.6
			c0,0.2-0.1,0.2-0.2,0.2h-0.6c-0.2,0-0.2-0.1-0.2-0.2v-4.6C214.9,89.8,214.8,89.5,214.6,89.3z"/>
		<path d="M222.9,88.2c0-0.2,0.1-0.2,0.2-0.2h6.1c0.7,0,1.2,0.2,1.6,0.5c0.4,0.3,0.6,0.8,0.6,1.5v0.5c0,0.7-0.2,1.2-0.6,1.5
			c-0.4,0.3-0.9,0.5-1.6,0.5H224v2.3c0,0.2-0.1,0.2-0.3,0.2h-0.6c-0.2,0-0.2-0.1-0.2-0.2V88.2z M230.3,90.1c0-0.4-0.1-0.7-0.3-0.8
			c-0.2-0.2-0.5-0.3-1-0.3h-5v2.6h5c0.5,0,0.8-0.1,1-0.3c0.2-0.2,0.3-0.5,0.3-0.8V90.1z"/>
		<path d="M232.3,90c0-0.7,0.2-1.2,0.5-1.5c0.4-0.4,0.9-0.5,1.5-0.5h4.6c0.7,0,1.2,0.2,1.5,0.5c0.4,0.4,0.5,0.9,0.5,1.5v4.7
			c0,0.2-0.1,0.2-0.2,0.2h-0.6c-0.2,0-0.3-0.1-0.3-0.2v-2.1h-6.6v2.1c0,0.2-0.1,0.2-0.2,0.2h-0.6c-0.2,0-0.3-0.1-0.3-0.2V90z
			 M239.9,90.2c0-0.4-0.1-0.7-0.3-0.9c-0.2-0.2-0.5-0.3-0.9-0.3h-4.1c-0.8,0-1.2,0.4-1.2,1.2v1.6h6.6V90.2z"/>
		<path d="M242.8,88.5c0.4-0.4,0.9-0.5,1.5-0.5h4.6c0.7,0,1.2,0.2,1.5,0.5c0.4,0.4,0.5,0.9,0.5,1.5v4.7c0,0.2-0.1,0.2-0.2,0.2h-0.6
			c-0.2,0-0.3-0.1-0.3-0.2v-4.6c0-0.8-0.4-1.2-1.2-1.2h-4.1c-0.8,0-1.2,0.4-1.2,1.2v4.6c0,0.2-0.1,0.2-0.2,0.2h-0.6
			c-0.2,0-0.3-0.1-0.3-0.2V90C242.2,89.4,242.4,88.9,242.8,88.5z"/>
		<path d="M253.3,94.8c0,0.2-0.1,0.2-0.3,0.2h-0.6c-0.2,0-0.2-0.1-0.2-0.2v-6.5c0-0.2,0.1-0.2,0.2-0.2h0.6c0.2,0,0.3,0.1,0.3,0.2
			V94.8z"/>
		<path d="M255.6,92.8c0,0.4,0.1,0.7,0.3,0.9c0.2,0.2,0.5,0.3,0.9,0.3h6c0.2,0,0.3,0.1,0.3,0.2v0.5c0,0.2-0.1,0.2-0.3,0.2h-6.3
			c-0.7,0-1.2-0.2-1.5-0.5c-0.4-0.4-0.5-0.9-0.5-1.5V90c0-0.7,0.2-1.2,0.5-1.5c0.4-0.4,0.9-0.5,1.5-0.5h6.3c0.2,0,0.3,0.1,0.3,0.2
			v0.5c0,0.2-0.1,0.3-0.3,0.3h-6c-0.4,0-0.7,0.1-0.9,0.3c-0.2,0.2-0.3,0.5-0.3,0.9V91h6.4c0.2,0,0.3,0.1,0.3,0.2v0.5
			c0,0.2-0.1,0.2-0.3,0.2h-6.4V92.8z"/>
		<path d="M265.3,89.2c-0.2,0.1-0.3,0.4-0.3,0.7v0.2c0,0.3,0.1,0.6,0.3,0.7c0.2,0.1,0.5,0.2,0.9,0.2h4.3c0.3,0,0.6,0,0.9,0.1
			c0.3,0.1,0.5,0.2,0.7,0.3c0.2,0.1,0.3,0.3,0.4,0.5c0.1,0.2,0.1,0.5,0.1,0.8v0.5c0,0.3,0,0.6-0.1,0.8c-0.1,0.2-0.2,0.4-0.4,0.5
			c-0.2,0.1-0.4,0.2-0.7,0.3c-0.3,0.1-0.6,0.1-0.9,0.1h-6.2c-0.2,0-0.2-0.1-0.2-0.2v-0.5c0-0.2,0.1-0.2,0.2-0.2h6.1
			c0.4,0,0.7-0.1,0.9-0.2c0.2-0.1,0.3-0.4,0.3-0.7v-0.2c0-0.3-0.1-0.6-0.3-0.7c-0.2-0.1-0.5-0.2-0.9-0.2h-4.3c-0.3,0-0.6,0-0.9-0.1
			c-0.3-0.1-0.5-0.2-0.7-0.3c-0.2-0.1-0.3-0.3-0.4-0.5c-0.1-0.2-0.1-0.5-0.1-0.8v-0.5c0-0.3,0-0.6,0.1-0.8c0.1-0.2,0.2-0.4,0.4-0.5
			c0.2-0.1,0.4-0.2,0.7-0.3c0.3-0.1,0.6-0.1,0.9-0.1h6.1c0.2,0,0.3,0.1,0.3,0.2v0.5c0,0.2-0.1,0.3-0.3,0.3h-6
			C265.8,89,265.5,89,265.3,89.2z"/>
	</g>
</g>
</svg>
