<?xml version="1.0" encoding="UTF-8"?>
<svg version="1.1" xmlns="http://www.w3.org/2000/svg" width="225" height="225">
<path d="M0 0 C74.25 0 148.5 0 225 0 C225 74.25 225 148.5 225 225 C150.75 225 76.5 225 0 225 C0 150.75 0 76.5 0 0 Z " fill="#050716" transform="translate(0,0)"/>
<path d="M0 0 C6.14154225 0.58490879 12.00679849 1.54066252 18 3 C18.18175781 4.15113281 18.36351562 5.30226563 18.55078125 6.48828125 C18.67090576 7.24858643 18.79103027 8.0088916 18.91479492 8.79223633 C19.18248512 10.48859352 19.44956365 12.18504734 19.71606445 13.8815918 C20.41896232 18.35057277 21.13157425 22.81752878 21.8671875 27.28125 C22.07347778 28.54714966 22.07347778 28.54714966 22.28393555 29.83862305 C22.54723877 31.45268933 22.81416144 33.06617056 23.08520508 34.67895508 C23.75869442 38.83597884 24.14118989 42.77102672 24 47 C24.66 47 25.32 47 26 47 C26.66 45.35 27.32 43.7 28 42 C32.10110762 43.40398279 34.98089159 45.37087038 38.3125 48.125 C39.19550781 48.84945312 40.07851562 49.57390625 40.98828125 50.3203125 C41.65214844 50.87460938 42.31601563 51.42890625 43 52 C41.33710658 57.20693503 38.15517112 61.30077034 35 65.6875 C34.4534375 66.45900391 33.906875 67.23050781 33.34375 68.02539062 C29.29882219 73.70117781 29.29882219 73.70117781 27 76 C25.1171875 76.046875 25.1171875 76.046875 22.875 75.75 C22.15054688 75.66234375 21.42609375 75.5746875 20.6796875 75.484375 C17.06866828 74.83165433 13.55330372 73.91649694 10 73 C9.29680072 69.12794845 8.60361435 65.2542351 7.91870117 61.37890625 C7.57252528 59.43139994 7.21898866 57.48520651 6.86523438 55.5390625 C5.36350369 47.00749108 4.44122703 38.64871959 4 30 C3.34 30 2.68 30 2 30 C1.76023437 30.68707031 1.52046875 31.37414062 1.2734375 32.08203125 C-0.24383119 35.55871748 -2.24010281 38.5719742 -4.375 41.6875 C-5.26719051 43.00633224 -6.15910464 44.3253515 -7.05078125 45.64453125 C-7.52467285 46.34271973 -7.99856445 47.0409082 -8.48681641 47.76025391 C-10.10060715 50.14891416 -11.6985689 52.54757515 -13.29296875 54.94921875 C-14.10918701 56.17862183 -14.10918701 56.17862183 -14.94189453 57.43286133 C-16.01221474 59.04575874 -17.0822081 60.65887309 -18.15185547 62.2722168 C-18.63928223 63.00480713 -19.12670898 63.73739746 -19.62890625 64.4921875 C-20.06275635 65.14558105 -20.49660645 65.79897461 -20.94360352 66.47216797 C-22 68 -22 68 -23 69 C-24.78515625 69.16796875 -24.78515625 69.16796875 -27.0625 69.1875 C-27.79597656 69.20167969 -28.52945313 69.21585937 -29.28515625 69.23046875 C-32.99966658 68.91513622 -36.39919104 67.9640261 -40 67 C-40.39832031 65.37191406 -40.39832031 65.37191406 -40.8046875 63.7109375 C-41.16133082 62.26559353 -41.5181088 60.82028278 -41.875 59.375 C-42.04902344 58.66214844 -42.22304687 57.94929688 -42.40234375 57.21484375 C-43.42854338 53.07203784 -44.58790729 49.03273322 -46 45 C-56.15041786 57.93000732 -56.15041786 57.93000732 -65.9296875 71.140625 C-68.66302659 74.91572729 -71.45400628 78.64616646 -74.25 82.375 C-74.75805176 83.05385254 -75.26610352 83.73270508 -75.78955078 84.43212891 C-76.75163507 85.71374103 -77.71892881 86.99146409 -78.69213867 88.26464844 C-79.85484705 89.80740206 -80.96473086 91.38965013 -82.06640625 92.9765625 C-84 95 -84 95 -86.26171875 95.375 C-87.46248047 95.189375 -87.46248047 95.189375 -88.6875 95 C-89.55503906 94.86722656 -90.42257813 94.73445313 -91.31640625 94.59765625 C-95.32910714 93.70399797 -99.16475135 92.47295782 -103 91 C-101.7129307 87.3785403 -100.23065762 84.79786181 -97.75 81.875 C-93.82677996 77.09798567 -90.14651231 72.17845669 -86.5 67.1875 C-80.74002468 59.31608074 -74.86111872 51.54465828 -68.91894531 43.81005859 C-65.62160187 39.50130454 -62.37865521 35.16699674 -59.23828125 30.7421875 C-58.64861572 29.91146729 -58.0589502 29.08074707 -57.45141602 28.22485352 C-56.34631726 26.65798871 -55.24868903 25.08581846 -54.15991211 23.50756836 C-53.66885986 22.81026611 -53.17780762 22.11296387 -52.671875 21.39453125 C-52.2500293 20.78456299 -51.82818359 20.17459473 -51.39355469 19.54614258 C-49.72648652 17.69653805 -48.33122304 16.86365258 -46 16 C-42.546875 16.4609375 -42.546875 16.4609375 -38.75 17.375 C-37.48671875 17.67148438 -36.2234375 17.96796875 -34.921875 18.2734375 C-33.47554687 18.63308594 -33.47554687 18.63308594 -32 19 C-31.60167969 20.51980469 -31.60167969 20.51980469 -31.1953125 22.0703125 C-30.83864311 23.42190177 -30.48186657 24.77346278 -30.125 26.125 C-29.86396484 27.12273437 -29.86396484 27.12273437 -29.59765625 28.140625 C-28.5368867 32.14797664 -27.35567689 36.07952899 -26 40 C-25.7097998 39.53440674 -25.41959961 39.06881348 -25.12060547 38.58911133 C-16.98585999 25.56306096 -8.57586719 12.73948513 0 0 Z " fill="#F8D929" transform="translate(142,69)"/>
<path d="M0 0 C4.7419124 0.48033278 9.41759979 0.95657138 14.0625 2.0625 C14.81660156 2.23910156 15.57070312 2.41570312 16.34765625 2.59765625 C16.89292969 2.73042969 17.43820313 2.86320312 18 3 C18.18175781 4.15113281 18.36351562 5.30226563 18.55078125 6.48828125 C18.73096802 7.62873901 18.73096802 7.62873901 18.91479492 8.79223633 C19.18248512 10.48859352 19.44956365 12.18504734 19.71606445 13.8815918 C20.41896232 18.35057277 21.13157425 22.81752878 21.8671875 27.28125 C22.07347778 28.54714966 22.07347778 28.54714966 22.28393555 29.83862305 C22.54723877 31.45268933 22.81416144 33.06617056 23.08520508 34.67895508 C23.75869442 38.83597884 24.14118989 42.77102672 24 47 C24.66 47 25.32 47 26 47 C26.66 45.35 27.32 43.7 28 42 C32.10110762 43.40398279 34.98089159 45.37087038 38.3125 48.125 C39.19550781 48.84945312 40.07851562 49.57390625 40.98828125 50.3203125 C41.65214844 50.87460938 42.31601563 51.42890625 43 52 C41.33710658 57.20693503 38.15517112 61.30077034 35 65.6875 C34.4534375 66.45900391 33.906875 67.23050781 33.34375 68.02539062 C29.29882219 73.70117781 29.29882219 73.70117781 27 76 C25.1171875 76.046875 25.1171875 76.046875 22.875 75.75 C22.15054688 75.66234375 21.42609375 75.5746875 20.6796875 75.484375 C17.06866828 74.83165433 13.55330372 73.91649694 10 73 C9.29680072 69.12794845 8.60361435 65.2542351 7.91870117 61.37890625 C7.57252528 59.43139994 7.21898866 57.48520651 6.86523438 55.5390625 C5.36350369 47.00749108 4.44122703 38.64871959 4 30 C3.34 30 2.68 30 2 30 C1.76796875 30.67546875 1.5359375 31.3509375 1.296875 32.046875 C-0.33137473 35.7545762 -2.46903938 38.9161911 -4.75 42.25 C-5.19520996 42.9087915 -5.64041992 43.56758301 -6.09912109 44.24633789 C-6.98654261 45.55944491 -7.87566459 46.87140456 -8.76660156 48.18212891 C-10.4008457 50.59079514 -12.01397758 53.01325813 -13.625 55.4375 C-14.41666667 56.625 -15.20833333 57.8125 -16 59 C-18.56616632 55.15075052 -18.55097676 52.5650696 -19 48 C-19.99 47.67 -20.98 47.34 -22 47 C-22.33 44.69 -22.66 42.38 -23 40 C-23.66 40 -24.32 40 -25 40 C-23.34709878 35.11261443 -20.61088361 31.11517523 -17.7734375 26.85546875 C-17.01191879 25.7007885 -17.01191879 25.7007885 -16.23501587 24.52278137 C-14.61921927 22.07487548 -12.9972133 19.63115711 -11.375 17.1875 C-10.27562891 15.52436131 -9.1766659 13.86095279 -8.078125 12.19726562 C-5.39013469 8.12836901 -2.69656951 4.0632155 0 0 Z " fill="#F6AD3B" transform="translate(142,69)"/>
<path d="M0 0 C0.99 0 1.98 0 3 0 C4.4606285 2.64738916 5 3.89448334 5 7 C5.66 7 6.32 7 7 7 C7.66 9.31 8.32 11.62 9 14 C9.99 14 10.98 14 12 14 C11.37695259 18.07453229 9.23467379 20.89539701 6.9375 24.25 C6.20402344 25.32765625 5.47054687 26.4053125 4.71484375 27.515625 C4.14894531 28.33546875 3.58304688 29.1553125 3 30 C0.43383368 26.15075052 0.44902324 23.5650696 0 19 C-0.99 18.67 -1.98 18.34 -3 18 C-3.33 15.69 -3.66 13.38 -4 11 C-4.66 11 -5.32 11 -6 11 C-4.54923295 6.88949336 -2.65754275 3.46285873 0 0 Z " fill="#F6BF34" transform="translate(123,98)"/>
<path d="M0 0 C1.125 3.75 1.125 3.75 0 6 C-0.99 6 -1.98 6 -3 6 C-2.33131686 9.11332248 -2.33131686 9.11332248 0.0625 10.1875 C0.701875 10.455625 1.34125 10.72375 2 11 C1.67 11.99 1.34 12.98 1 14 C-1.64 13.67 -4.28 13.34 -7 13 C-7 8.40848794 -6.31497074 7.66817876 -3.5 4.25 C-2.8503125 3.45078125 -2.200625 2.6515625 -1.53125 1.828125 C-1.0259375 1.22484375 -0.520625 0.6215625 0 0 Z " fill="#F2C234" transform="translate(47,148)"/>
<path d="M0 0 C2.64 0 5.28 0 8 0 C8.33 0.99 8.66 1.98 9 3 C9.66 3 10.32 3 11 3 C11.33 2.01 11.66 1.02 12 0 C12.66 0 13.32 0 14 0 C14 1.65 14 3.3 14 5 C12.8553125 4.9690625 12.8553125 4.9690625 11.6875 4.9375 C8.89814214 4.87057159 8.89814214 4.87057159 6 6 C5.67 5.34 5.34 4.68 5 4 C4.67 4.66 4.34 5.32 4 6 C3.34 6 2.68 6 2 6 C2 4.35 2 2.7 2 1 C1.34 0.67 0.68 0.34 0 0 Z " fill="#664C2F" transform="translate(71,83)"/>
<path d="M0 0 C1.125 3.75 1.125 3.75 0 6 C-0.99 6.33 -1.98 6.66 -3 7 C-3.33 7.99 -3.66 8.98 -4 10 C-6.0625 10.6875 -6.0625 10.6875 -8 11 C-7.04454634 9.53977837 -6.08553322 8.08188532 -5.125 6.625 C-4.59132812 5.81289062 -4.05765625 5.00078125 -3.5078125 4.1640625 C-2 2 -2 2 0 0 Z " fill="#E3BD38" transform="translate(47,148)"/>
<path d="M0 0 C0.99 0.495 0.99 0.495 2 1 C2 1.66 2 2.32 2 3 C2.66 3 3.32 3 4 3 C4.33 2.01 4.66 1.02 5 0 C5.66 0 6.32 0 7 0 C7 1.65 7 3.3 7 5 C4.69 5 2.38 5 0 5 C0 3.35 0 1.7 0 0 Z " fill="#AB7E3F" transform="translate(78,83)"/>
</svg>
