<svg xmlns="http://www.w3.org/2000/svg" viewBox="0 0 176.04 176.04" width="300"><g id="Слой_2" data-name="Слой 2"><g id="Слой_1-2" data-name="Слой 1"><path d="M88,0A88,88,0,1,1,0,88,88,88,0,0,1,88,0Zm0,2.42A85.6,85.6,0,1,0,173.61,88,85.59,85.59,0,0,0,88,2.42Z" style="fill:#424243;fill-rule:evenodd"/><path d="M142.89,60.08a1.31,1.31,0,0,1-1.31,2.27,7,7,0,0,0-1.48-.66,5,5,0,0,0-1.39-.23c-2.39-.05-4.42,1.56-5.77,3.75a12.47,12.47,0,0,0-1.58,4,9.11,9.11,0,0,0,0,3.82A3.76,3.76,0,0,0,133.91,76a2.42,2.42,0,0,0,2.26-.45,9.33,9.33,0,0,0,2.5-3.62,32.87,32.87,0,0,0,1.2-4.43c.07-.31.12-.53.15-.62a1.18,1.18,0,0,1,1.59-1h0c1,.28,1,1,1,2a19.58,19.58,0,0,0,.23,4.56,6.54,6.54,0,0,0,1.42,2.91,2.29,2.29,0,0,0,1.74.74,6.52,6.52,0,0,0,4.14-2.36,13.38,13.38,0,0,0,3.22-5.7,1.31,1.31,0,0,1,2.55.63A16.17,16.17,0,0,1,152,75.53c-1.79,1.88-3.95,3.14-6,3.17a4.77,4.77,0,0,1-3.66-1.54,8.34,8.34,0,0,1-1.8-3.16,10.83,10.83,0,0,1-2.82,3.6,4.92,4.92,0,0,1-4.6.87,6.26,6.26,0,0,1-4.35-4.84,11.63,11.63,0,0,1,0-4.95,14.86,14.86,0,0,1,1.92-4.84c1.8-2.92,4.61-5.07,8-5a7.54,7.54,0,0,1,2.1.34,9.66,9.66,0,0,1,2,.89Zm-19.34,7.8a1.3,1.3,0,0,1,1.58-1,1.32,1.32,0,0,1,1,1.59,16.49,16.49,0,0,1-3.92,7c-1.79,1.9-4,3.19-6,3.19a4.77,4.77,0,0,1-3.61-1.64A9.49,9.49,0,0,1,110.49,73a19.5,19.5,0,0,1-.46-5.7,47.68,47.68,0,0,1,1-7.46,1.31,1.31,0,1,1,2.53.69,41.78,41.78,0,0,0-.92,6.88,16.74,16.74,0,0,0,.37,4.91,7.16,7.16,0,0,0,1.43,3,2.29,2.29,0,0,0,1.7.79c1.29,0,2.78-.95,4.12-2.37a13.81,13.81,0,0,0,3.28-5.82ZM30.6,50.6a1.31,1.31,0,0,1,.68,2.53,11,11,0,0,0-8.46,9.22,12.15,12.15,0,0,0,.41,5.15,12,12,0,0,0,2.59,4.58c3.11,3.41,8.54,5.2,16.06,2.89,14.7-4.52,21-25.75,23.39-33.84l0-.15-.1-.44a36.53,36.53,0,0,1-.55-9.77c.27-3.24,1.14-5.76,2.45-6.28l.21-.06h0a1.69,1.69,0,0,1,.63,0c.94.14,1.54.91,1.81,2.16A13.47,13.47,0,0,1,70,29.67a48.77,48.77,0,0,1-2,11.38c.82,3.37,2.77,11.88,4.56,19.79,1,4.63,2,9.07,2.71,12.17,4.24-10.57,15.71-38.86,26-48.24a1.32,1.32,0,0,1,1.85.09,1.29,1.29,0,0,1,.24,1.37C101,32,97.17,43.52,96.2,54.11c-.44,4.84-.27,9.48.93,13.25,1.14,3.59,3.24,6.39,6.69,7.8a14.58,14.58,0,0,0,4.12,1,1.31,1.31,0,0,1-.24,2.61,17.34,17.34,0,0,1-4.86-1.13c-4.27-1.74-6.83-5.12-8.2-9.44C93.32,64,93.13,59,93.6,53.87A103.2,103.2,0,0,1,98.48,32c-8.74,12-17.59,34.09-21,42.55-.76,1.88-1.25,3.11-1.45,3.49a1.33,1.33,0,0,1-1,.68,1.31,1.31,0,0,1-1.5-1.09c-.13-.84-1.77-8.22-3.58-16.2C68.78,55.93,67.47,50.17,66.51,46c-3.22,10-10,27.18-23.86,31.44-8.66,2.66-15,.46-18.77-3.63a14.6,14.6,0,0,1-3.16-5.58A14.79,14.79,0,0,1,20.23,62,13.54,13.54,0,0,1,30.6,50.6ZM67.23,31.82c.07-.65.12-1.26.14-1.83,0,.31-.06.64-.08,1S67.24,31.53,67.23,31.82Z" style="fill:#424243;fill-rule:evenodd"/><path d="M120.11,46.12a10.4,10.4,0,0,0-6.23,3c-1.5,1.79-2.76,5.89-.72,7.28,2.3,1.58,7.62-2.13,7.62-6.62A12,12,0,0,0,120.11,46.12Z" style="fill:#424243;fill-rule:evenodd"/><path d="M112.35,56.26a3.7,3.7,0,0,1-.74-2.16A8.57,8.57,0,0,1,113.38,49c.75-.94,1.43-1.25,1.67-1.61a11.59,11.59,0,0,0-3.13-3.17A7.57,7.57,0,0,0,109,50.73a9.35,9.35,0,0,0,1,3.19C110.36,54.52,111.25,56.05,112.35,56.26Z" style="fill:#424243;fill-rule:evenodd"/><path d="M114.39,45.66a9.56,9.56,0,0,0,1.14,1.48l1.71-.79a4.24,4.24,0,0,0-1.1-1.7A8,8,0,0,0,114.39,45.66Z" style="fill:#424243;fill-rule:evenodd"/><polygon points="51.8 85.69 51.8 89.52 43.81 89.52 43.81 93.65 49.79 93.65 49.79 97.37 43.81 97.37 43.81 105.3 39.03 105.3 39.03 85.69 51.8 85.69" style="fill:#424243;fill-rule:evenodd"/><polygon points="65.2 101.61 71.45 101.61 71.45 105.3 60.42 105.3 60.42 85.69 65.2 85.69 65.2 101.61" style="fill:#424243;fill-rule:evenodd"/><path d="M89.12,105.5a10.22,10.22,0,0,1-5.07-1.29,9.7,9.7,0,0,1-3.66-3.59,10.59,10.59,0,0,1,0-10.35,9.72,9.72,0,0,1,3.66-3.57,10.61,10.61,0,0,1,10.14,0,9.36,9.36,0,0,1,3.63,3.57,10.7,10.7,0,0,1,0,10.35,9.55,9.55,0,0,1-3.63,3.59,10.13,10.13,0,0,1-5.06,1.29Zm0-4.36a4.79,4.79,0,0,0,3.76-1.57,6.78,6.78,0,0,0,0-8.28,5.37,5.37,0,0,0-7.54,0,6.83,6.83,0,0,0,0,8.31A4.87,4.87,0,0,0,89.12,101.14Z" style="fill:#424243;fill-rule:evenodd"/><path d="M117.91,105.3l-4.08-7.4h-1.14v7.4h-4.78V85.69h8a8.83,8.83,0,0,1,3.95.81,5.57,5.57,0,0,1,2.44,2.22,6.2,6.2,0,0,1,.81,3.14,5.69,5.69,0,0,1-4.36,5.67l4.53,7.77Zm-5.22-10.78h3a2.76,2.76,0,0,0,2-.64,2.47,2.47,0,0,0,.65-1.82,2.39,2.39,0,0,0-.65-1.76,2.72,2.72,0,0,0-2-.64h-3Z" style="fill:#424243;fill-rule:evenodd"/><rect x="132.23" y="85.69" width="4.78" height="19.61" style="fill:#424243"/><path d="M46.8,140.85c0-3.09-1.57-5.4-4.23-5.4s-4.21,2.31-4.21,5.4,1.55,5.49,4.21,5.49,4.23-2.3,4.23-5.49Zm-2.4,0c0,1.55-.28,3.54-1.83,3.54s-1.82-2-1.82-3.54.29-3.45,1.82-3.45S44.4,139.31,44.4,140.85Z" style="fill:#424243;fill-rule:evenodd"/><polygon points="56.65 135.63 49.24 135.63 49.24 137.57 53.66 137.57 49.43 146.16 51.86 146.16 56.65 135.63" style="fill:#424243;fill-rule:evenodd"/><path d="M66.73,139.18a3.71,3.71,0,0,0-3.94-3.73c-2.44,0-4.16,1.55-4.16,3.73a3.3,3.3,0,0,0,3.21,3.42A2.61,2.61,0,0,0,63.7,142,9,9,0,0,1,61.06,145l1.38,1.62c1.49-1.13,4.29-4.29,4.29-7.39Zm-2.31-.05a1.65,1.65,0,0,1-1.73,1.69,1.68,1.68,0,0,1-1.75-1.69,1.7,1.7,0,0,1,1.75-1.8A1.68,1.68,0,0,1,64.42,139.13Z" style="fill:#424243;fill-rule:evenodd"/><path d="M80.85,140.85c0-3.09-1.57-5.4-4.23-5.4s-4.21,2.31-4.21,5.4,1.56,5.49,4.21,5.49,4.23-2.3,4.23-5.49Zm-2.39,0c0,1.55-.29,3.54-1.84,3.54s-1.81-2-1.81-3.54.28-3.45,1.81-3.45S78.46,139.31,78.46,140.85Z" style="fill:#424243;fill-rule:evenodd"/><path d="M91.07,143.59v-1.73H89.85v-6.24H88l-4.75,6.62v1.35h4.28v2.57h2.31v-2.57Zm-3.53-1.73H85.32l2.22-3.13Z" style="fill:#424243;fill-rule:evenodd"/><path d="M102.11,140.85c0-3.09-1.57-5.4-4.23-5.4s-4.21,2.31-4.21,5.4,1.56,5.49,4.21,5.49,4.23-2.3,4.23-5.49Zm-2.39,0c0,1.55-.29,3.54-1.84,3.54s-1.81-2-1.81-3.54.28-3.45,1.81-3.45S99.72,139.31,99.72,140.85Z" style="fill:#424243;fill-rule:evenodd"/><path d="M115.46,142.45c0-2.25-1.3-3.65-3.12-3.65a2.68,2.68,0,0,0-1.88.56l.2-1.86h4v-1.88h-5.79l-.58,5.65,1.34.5a2.29,2.29,0,0,1,1.82-1.09,1.66,1.66,0,0,1,1.65,1.77,1.83,1.83,0,0,1-1.79,1.87,3.39,3.39,0,0,1-2.14-.83L108,145.05a5.18,5.18,0,0,0,3.38,1.29A4,4,0,0,0,115.46,142.45Z" style="fill:#424243;fill-rule:evenodd"/><path d="M126.75,140.85c0-3.09-1.57-5.4-4.23-5.4s-4.21,2.31-4.21,5.4,1.56,5.49,4.21,5.49,4.23-2.3,4.23-5.49Zm-2.4,0c0,1.55-.28,3.54-1.83,3.54s-1.82-2-1.82-3.54.29-3.45,1.82-3.45S124.35,139.31,124.35,140.85Z" style="fill:#424243;fill-rule:evenodd"/><path d="M137.68,143.26a2.76,2.76,0,0,0-1.74-2.77,2.22,2.22,0,0,0,1.27-2c0-1.8-1.35-3-3.68-3s-3.64,1.2-3.64,3a2.29,2.29,0,0,0,1.34,2,2.8,2.8,0,0,0-1.86,2.63c0,2,1.82,3.22,4.16,3.22s4.15-1.2,4.15-3.08ZM135,138.45a1.36,1.36,0,0,1-1.51,1.27,1.32,1.32,0,0,1-1.48-1.27c0-.76.71-1.19,1.48-1.19s1.51.43,1.51,1.19Zm.41,4.47a2,2,0,0,1-3.84,0c0-1,.93-1.46,1.92-1.46S135.45,141.93,135.45,142.92Z" style="fill:#424243;fill-rule:evenodd"/><path d="M56.24,158.42v-7.53H54.56l-1.91,3.67a1.47,1.47,0,0,0-.14.34,3.1,3.1,0,0,0-.14-.34l-2-3.67H48.72v7.53h1.65v-4.34c0-.25,0-.49,0-.52a1.55,1.55,0,0,0,.13.29l1.71,3.08h.63l1.68-3.08a3.21,3.21,0,0,0,.14-.29,3,3,0,0,0,0,.52v4.34Z" style="fill:#424243;fill-rule:evenodd"/><rect x="59.02" y="150.89" width="1.65" height="7.53" style="fill:#424243"/><path d="M69.84,158.42l-2.73-7.53H65.52l-2.69,7.53h1.74l.59-1.9h2.29l.58,1.9ZM67,155.13H65.59l.57-1.84.16-.6c0,.07.09.37.16.6Z" style="fill:#424243;fill-rule:evenodd"/><polygon points="76.03 152.28 76.03 150.89 72 150.89 72 158.42 73.65 158.42 73.65 155.47 75.88 155.47 75.88 154.08 73.65 154.08 73.65 152.28 76.03 152.28" style="fill:#424243;fill-rule:evenodd"/><polygon points="82.94 158.42 82.94 157.03 80.25 157.03 80.25 150.89 78.6 150.89 78.6 158.42 82.94 158.42" style="fill:#424243;fill-rule:evenodd"/><path d="M92.24,154.62a3.67,3.67,0,0,0-3.87-3.85,3.73,3.73,0,0,0-3.88,3.85,3.88,3.88,0,1,0,7.75,0Zm-1.7,0a2.31,2.31,0,0,1-2.19,2.48,2.35,2.35,0,0,1-2.16-2.48,2.3,2.3,0,0,1,2.18-2.41A2.24,2.24,0,0,1,90.54,154.62Z" style="fill:#424243;fill-rule:evenodd"/><path d="M100.27,158.42l-2-3.15a2.13,2.13,0,0,0,1.68-2.13,2.32,2.32,0,0,0-2.59-2.25h-2.7v7.53h1.65v-3.56l2.09,3.56Zm-2-5.28a.88.88,0,0,1-.94,1h-1v-1.82h1A.87.87,0,0,1,98.3,153.14Z" style="fill:#424243;fill-rule:evenodd"/><rect x="102.58" y="150.89" width="1.65" height="7.53" style="fill:#424243"/><rect x="106.75" y="156.86" width="1.55" height="1.56" style="fill:#424243"/><path d="M118.34,158.42v-7.53h-1.68l-1.92,3.67a1.81,1.81,0,0,0-.13.34,3.1,3.1,0,0,0-.14-.34l-2-3.67h-1.61v7.53h1.65v-4.34a4.84,4.84,0,0,0,0-.52,1.77,1.77,0,0,0,.14.29l1.71,3.08h.63l1.68-3.08a2.49,2.49,0,0,0,.13-.29,3.6,3.6,0,0,0,0,.52v4.34Z" style="fill:#424243;fill-rule:evenodd"/><path d="M127.32,154.64a3.64,3.64,0,0,0-3.92-3.75h-2.28v7.53h2.28a3.7,3.7,0,0,0,3.92-3.78Zm-1.7,0A2.23,2.23,0,0,1,123.4,157h-.63v-4.75h.63A2.23,2.23,0,0,1,125.62,154.64Z" style="fill:#424243;fill-rule:evenodd"/><path d="M95.12,121.87c1.7-.16,3.39-.33,5.08-.53a9.39,9.39,0,0,0-1.78,1,4.6,4.6,0,0,0-1.31,1.73c-.58,1.35-.32,2.61,1.08,3.15a2.77,2.77,0,0,0,3.38-1.18c.89-1.56.36-3.27.31-4.89l2.88-.38c1.8-.25,3.6-.54,5.39-.84a14.53,14.53,0,0,0-1.67,1,9,9,0,0,0-1.89,1.91,2.34,2.34,0,0,0-.53,2.17,3.23,3.23,0,0,0,1.47,1.56c1.54.83,3-.35,3.86-1.72a5.87,5.87,0,0,0,.82-2.48c.07-.93-.19-1.82-.2-2.74l.08,0a57.9,57.9,0,0,0,7.38-1.54c.32-.1.27-.59-.07-.55-2.43.31-4.88,1-7.3,1.42l-.2,0-.08,0-.51.09c-1.14-1.76-1-4.13-2.41-5.75a3,3,0,0,0-4.23-.51c-1.57,1.31-1,3.27.14,4.44a4.84,4.84,0,0,0,2.34,1.24c1,.21,2.35,0,3.12.76q-2.74.47-5.5.86l-2.94.4a.11.11,0,0,0-.08,0c-1.27-1.34-1.15-3.49-2.75-4.63a4.64,4.64,0,0,0-4.61-.4c-1.54.78-1,3.1,0,4a5.61,5.61,0,0,0,2.77,1,26,26,0,0,1,2.89.34q-4.42.52-8.86.84c-.38-1.77-.65-3.81-2-5.1-1-.92-3.07-1.46-4.25-.23s-.55,3.09.43,3.93a4.59,4.59,0,0,0,2.18.9,9.06,9.06,0,0,1,2.8.57l-.28,0c-2.24.15-4.54.33-6.83.42-.74-.53-.77-1.42-1.1-2.25A5.1,5.1,0,0,0,81,118.11c-.69-.71-2.1-1.64-3.12-.7s-.39,2.34.23,3.09a5.37,5.37,0,0,0,2.82,1.59,33.29,33.29,0,0,1-5.77-.44h0a8.47,8.47,0,0,1-.75-2.54,6.14,6.14,0,0,0-1-2.06c-.63-.84-1.83-1.57-2.9-.75s-.74,2-.06,2.8a4.46,4.46,0,0,0,1.76,1.26,5.38,5.38,0,0,1,1.52,1,53.8,53.8,0,0,1-5.55-1.56h0c-.58-1.35,0-3.09-1-4.31a3.28,3.28,0,0,0-3-1.33A1.91,1.91,0,0,0,63,116.57a2.85,2.85,0,0,0,.87,1.51,9.29,9.29,0,0,0,1.23.7l-2.59-.84a.14.14,0,0,0-.14-.08h0c-.77-1.21-1.44-2.22-3.07-2.31a2.82,2.82,0,0,0-2,.34,2.54,2.54,0,0,0-.89,1.51c-.25,1.6,1.18,2.14,2.55,2.24a2.52,2.52,0,0,0,1.69-.34c.61-.41,1-1,1.73-1.13l0,0,3.4,1.25H65.6a8,8,0,0,0-1.69,0c-1.19.22-3,1.46-2.6,2.81s2.14.78,3,.39A8.14,8.14,0,0,0,67.58,120c1.5.52,3,1,4.56,1.42-1.35.41-2.88.62-3.85,1.71a1.85,1.85,0,0,0,.1,2.84,2.73,2.73,0,0,0,3.29-.5A9.45,9.45,0,0,0,73,123.64c.46-.65,1.22-1,1.75-1.57l.24.05a36.69,36.69,0,0,0,7.37.51,6.17,6.17,0,0,1-2.63.94,3.46,3.46,0,0,0-1.89.47c-.91.77-.52,2.26.16,2.92a2.59,2.59,0,0,0,3.44,0c1.35-1.17,1.18-3.19,2.55-4.33,1.85-.07,3.69-.19,5.5-.3l2.85-.19c-1.27,1.43-3.45,1.72-4.66,3.25a2.36,2.36,0,0,0,.68,3.64,3.6,3.6,0,0,0,4.24-1.53c1-1.79.71-4.09,2.44-5.51A.15.15,0,0,0,95.12,121.87Z" style="fill:#808183;fill-rule:evenodd"/></g></g></svg>