<svg version="1.1" id="Слой_1" xmlns="http://www.w3.org/2000/svg" xmlns:xlink="http://www.w3.org/1999/xlink" x="0px" y="0px"
	 viewBox="0 0 727.6 142.1" style="enable-background:new 0 0 727.6 142.1;" xml:space="preserve" width="300px">
<style type="text/css">
	.st0{fill:#0095F9;}
	.st1{fill:#333333;}
</style>
<g>
	<path class="st0" d="M141.6,0c22.9,22.9,46.4,46.4,69.5,69.5c-7.5,7.6-15.3,15.4-23.2,23.4c-14.9-15-30.3-30.6-45.7-46.1
		c-16.2,16.2-31.9,32-47.2,47.3c-8.7-8.7-16.4-16.5-23.7-23.7C94.4,47.2,118.1,23.5,141.6,0z"/>
	<path class="st0" d="M122.3,142.1c-40.7,0-82,0-122.3,0c20.2-20.2,40.9-40.9,61.1-61.2C80.9,100.8,101.7,121.5,122.3,142.1z"/>
	<path class="st0" d="M282,142.1c-40.3,0-81.7,0-121.7,0c20-20,40.7-40.7,60.8-60.8C240.7,100.8,261.5,121.6,282,142.1z"/>
	<path class="st1" d="M640.9,22.2c7.5,16.5,14.8,32.4,22,48.3c1.2,2.7,2.2,5.7,3.8,8.1c2,2.9,4.7,5.5,6.6,7.7c-7.3,0-16.1,0-26.3,0
		c5.9-1.7,5.1-4.8,3.7-8.3c-3.5-8.6-3.4-8.6-12.6-8.6c-0.7,0-1.3,0-2,0c-10,0-9.9,0-13.6,9.3c-1.4,3.4-1.4,6,2.6,7.2
		c-9.4,0-18.7,0.4-27.9-0.1c-6.4-0.4-11-4.4-13.7-10.3c-1.7-3.8-3.5-7.6-5.4-11.2c-1.6-3-3.6-5.8-5.4-8.5
		c10.4-2.7,14.4-8.4,12.3-18.6c-1.5-7.2-6.3-9.8-16.6-8.3c0,1.8,0,3.8,0,5.7c0,14.2,0.1,28.3,0,42.5c0,4.3,0.5,8,5.5,9.4
		c-8.2,0-16.5,0-26.2,0c6.3-1.6,7.4-5.1,7.3-9.8c-0.2-14.5-0.1-29,0-43.5c0-3.9-1.1-6.8-6.4-8.3c13.1,0,25-0.6,36.8,0.2
		c8.5,0.6,13.5,6.5,14.3,13.7c1,8.9-3,15.3-11.8,19.1c5.3,7.2,10.5,14.7,16.1,21.9c5.5,7.1,8.5,6.6,12.2-1.6
		C624.3,59.7,632.4,41.3,640.9,22.2z M637,43.8c-3.3,8-6,14.5-8.8,21.4c6,0,11.3,0,17.3,0C642.7,58.2,640.1,51.7,637,43.8z"/>
	<path class="st1" d="M474.2,22.3c9.7,15.8,18.6,30.5,27.9,45.8c9-15.4,17.6-30,26.2-44.7c0.4,0.1,0.8,0.2,1.1,0.3
		c1.1,7.6,2.2,15.3,3.2,22.9c1.4,10.4,2.9,20.8,4.1,31.2c0.5,4.6,2.4,7.4,7,8.5c-8.1,0-16.3,0-23.1,0c0.6-2.2,2.1-4.7,2-7.1
		c-0.7-9.1-1.9-18.2-4.1-27.9c-6.8,12-13.5,24.1-20.4,36.3c-6.9-11.5-14.1-23.6-22.3-37.2c-0.5,4.1-0.8,6.7-1.1,9.4
		c-0.7,6.6-1.7,13.2-2.1,19.9c-0.1,2.1,1.2,4.3,1.8,6.5c-4,0-9.2,0-14.5,0c5.9-1.2,6.4-5.8,6.9-10.6c2-16.5,4.2-33,6.3-49.5
		C473.3,25.4,473.6,24.6,474.2,22.3z"/>
	<path class="st1" d="M352.1,86.6c4.6-1.6,5.9-4.7,5.8-9.3c-0.2-14.7-0.2-29.3,0-44c0-4.1-1.2-7-5.1-9.4c14.2,0,28.5,0,42.9,0
		c0,3.8,0,8.5,0,13.8c-2.9-8.4-4.4-9.5-13.2-9.5c-3.5,0-7,0-10.8,0c0,8.5,0,16.6,0,24.7c10.8,2.8,16,1.2,19.7-6.7
		c0,6.7,0,12.6,0,19.9c-3.5-11.8-12.2-7.6-19.7-8.7c0,8.5,0,16.4,0,24.3c17.2,2.2,21.8,0.8,29.3-12.3c-1.1,5-2.1,10.1-3.4,15.1
		c-0.2,0.9-1.8,2-2.8,2C380.6,86.6,366.3,86.6,352.1,86.6z"/>
	<path class="st1" d="M408.7,24.4c7.1,0,14.2,0,21.3,0c6.9,0,13.9,0,21.3,0c0,3.3,0,7.8,0,13.5c-1.5-5.7-3.8-9.7-9.7-9.6
		c-4.6,0.1-9.3,0-14.6,0c0,4.5,0,8.6,0,12.7c0,4,0,7.9,0,11.8c10.8,3,16.7,1.2,20.3-5.7c0,2.9,0,5.8,0,8.7c0,3,0,5.9,0,7.8
		c-2.6-1.9-5.2-4.7-8.3-5.6c-3.5-1-7.5-0.2-11.6-0.2c0,8.3,0,16.2,0,24.1c16.6,1.8,21.1,1.9,29.7-13.8c-1.3,6.1-2.2,11.2-3.6,16
		c-0.3,1.1-2.5,2.5-3.9,2.5c-13.8,0.2-27.6,0.1-41.7-0.2c5.1-1.6,5.8-5.3,5.7-9.9c-0.2-14.3-0.1-28.6,0-42.9
		C413.6,29.5,413,26.3,408.7,24.4z"/>
	<path class="st1" d="M339,23.3c-0.5,5-0.9,8.9-1.2,12.3c-2.3-2.4-4.2-5.7-7.1-7.1c-2.9-1.4-7-1.7-10.1-0.8c-2.9,0.9-6,3.6-7.4,6.3
		c-1.8,3.4,1,6.3,3.9,8.2c6.1,4.1,12.2,8.1,18.4,12c6,3.8,9.2,9.1,8.4,16.3c-0.9,7.7-4.9,13-12.2,15.5c-7.8,2.7-15.8,2.4-23.6,0
		c-6.3-1.9-7.7-4-6.9-10.6c0.3-2.6,1.3-5,2.3-8.9c0.8,2.2,1.1,3,1.3,3.9c1.9,10.2,11.5,16.4,21.2,12.7c2.9-1.1,5.7-4.4,7.1-7.4
		c1.7-3.6-1-6.7-4-8.8c-5.9-4.1-11.9-8-17.8-12c-5.8-3.9-9.5-8.9-8.9-16.2c0.8-8.9,6.5-14.8,15.5-15.4
		C324.6,22.9,331.4,23.3,339,23.3z"/>
	<path class="st1" d="M689.5,24.6c-4.9,2.4-3.8,5.2-2,8.5c3.7,6.4,7.2,13,11.3,20.4c4.7-8.2,9.1-15.6,13-23.2
		c0.7-1.3-0.9-3.8-1.4-5.8c5.1,0,10.9,0,15.4,0c-2.6,2.7-5.9,5.7-8.8,9.2c-2.3,2.8-3.6,6.4-6,9.2c-8.8,10.3-10.9,22.3-9.7,35.3
		c0.4,4,1.5,6.7,5.6,8.4c-4.1,0-8.3,0-12.4,0c-4.1,0-8.2,0-12.4,0c5.5-1.5,5.5-5.7,5.9-10.2c1.3-12.5-1.5-23.6-9.4-33.5
		c-2.4-3-3.7-6.7-6.1-9.7c-2.6-3.3-5.9-6.2-8.2-8.6C671.3,24.6,679.9,24.6,689.5,24.6z"/>
	<path class="st1" d="M141.3,63.8c4.6,4.6,9.7,9.8,14.5,14.7c-4.8,4.9-9.9,10-15.1,15.3c-4.7-5-9.6-10.3-14.4-15.4
		C130.9,73.9,136.1,68.9,141.3,63.8z"/>
	<path class="st1" d="M101.8,102c4.8-4.8,9.9-9.8,14.5-14.4c5,5.1,10.2,10.3,15.2,15.3c-4.5,4.5-9.6,9.7-14.5,14.7
		C112.1,112.6,107.1,107.4,101.8,102z"/>
	<path class="st1" d="M165.1,87.3c5.1,5.1,10.2,10.1,15,14.8c-5.1,5-10.3,10.1-15,14.8c-4.6-4.5-9.8-9.7-14.8-14.6
		C154.9,97.6,160,92.4,165.1,87.3z"/>
	<path class="st1" d="M155.5,126.8c-4.5,4.5-9.6,9.6-14.8,14.8c-4.6-5-9.6-10.3-14.4-15.4c4.5-4.3,9.8-9.4,14.5-13.9
		C145.3,116.7,150.5,121.9,155.5,126.8z"/>
	<path class="st0" d="M678.8,102.6c-1.7,4.8-3.4,9.6-5.3,14.4c-0.3,0.8-1.5,2-1.9,1.9c-0.9-0.3-1.9-1.2-2.4-2.1
		c-1.1-2.2-1.9-4.5-3.1-7.6c-1.8,4-3.3,7.1-4.8,10.2c-0.6,0-1.1,0-1.7,0.1c-2.2-5.5-4.4-11-6.7-16.6c2.6-0.4,2.6-0.4,7.7,10.5
		c1.7-4.1,3.2-7.7,4.7-11.4c0.4,0,0.8,0,1.3,0c1.5,3.7,3.1,7.4,4.6,11.1c3.3-3.1,1.4-9.4,6.2-11.2
		C677.9,102.1,678.4,102.4,678.8,102.6z"/>
	<path class="st0" d="M487.8,118.9c-0.2-3.5-0.5-6.9-0.8-11.6c-2.2,2.6-3.9,4.5-5.9,6.8c-1.7-2.1-3.2-3.9-5.5-6.8
		c-0.4,4.7-0.8,8.2-1.1,11.8c-0.6,0-1.2-0.1-1.8-0.1c0-5.4,0-10.8,0-16.7c5.1-1.6,5.1,4.8,8.9,6.4c1.3-1.6,2.5-3.6,4.1-5.1
		c0.8-0.8,2.3-1.3,3.4-1.3c0.5,0,1.3,1.8,1.3,2.7c0.1,4.6,0.1,9.3,0.1,13.9C489.6,118.9,488.7,118.9,487.8,118.9z"/>
	<path class="st0" d="M705.2,119.5c-5.6-5.4-11.3-5.6-17,0.6c-0.2-0.6-0.4-1.1-0.7-1.7c2.3-5,4.6-10.1,7.2-15
		c0.3-0.6,4.1-0.5,4.5,0.2c2.6,4.7,4.7,9.7,7,14.7C705.8,118.7,705.5,119.1,705.2,119.5z"/>
	<path class="st0" d="M433.5,102.5c0,5.4,0,10.8,0,16.2c-0.5,0.2-1.1,0.4-1.6,0.5c-0.8-2.2-1.5-4.3-2.4-6.8c-2,0-4.5,0-7.2,0
		c-0.2,2.1-0.5,4.1-0.7,6.2c-0.4,0.2-0.7,0.4-1.1,0.6c-0.7-1-1.9-2-1.9-3c-0.2-3.8-0.2-7.6,0-11.4c0.1-0.9,1.3-1.8,2-2.7
		c0.4,0.9,1.1,1.8,1.3,2.8c0.3,1.3,0.2,2.6,0.3,4.2c2.6,0,5,0,7.4,0c0.8-2.5,1.5-4.9,2.2-7.3C432.3,102,432.9,102.3,433.5,102.5z"/>
	<path class="st0" d="M514.1,104.7c-1.6,0-3.3-0.3-4.8,0.1c-1.6,0.4-3.1,1.5-4.6,2.2c1.4,0.6,2.8,1.5,4.3,1.9
		c1.6,0.4,3.2,0.4,4.8,0.6c0,0.6,0,1.2,0,1.7c-1.8,0.2-3.6,0.1-5.3,0.6c-1.3,0.4-2.5,1.3-3.8,2c1.2,0.7,2.3,1.8,3.6,2.1
		c2,0.5,4,0.4,6.1,1.3c-3.3,3.2-10,2.9-10.7,1.6c-2-3.5-1.9-8.4-2.2-12.7c-0.1-1.3,1.2-3.8,1.7-3.8c3.7,0.1,7.8-1.6,11,0.9
		C514.2,103.6,514.1,104.1,514.1,104.7z"/>
	<path class="st0" d="M385,112.6c-0.9,3.1-1.3,4.8-1.8,6.5c-0.5-0.1-1-0.1-1.5-0.2c0-5.4,0-10.9,0-16.9c4.5,0.4,9.9-2.3,13.3,3.1
		c2.1,3.3,0,5.9-3.1,8c1.3,1.7,2.6,3.4,3.9,5.1c-0.2,0.4-0.5,0.8-0.7,1.1C391.8,117.2,388.6,115.1,385,112.6z M387.5,112.2
		c2.2-2.1,3.5-3.4,4.9-4.7c-1.5-0.9-2.9-2.6-4.4-2.6c-1.3,0-3,1.6-3.6,3C384.1,108.5,385.9,110.1,387.5,112.2z"/>
	<path class="st0" d="M335.3,101.7c5.5-0.1,9.2,3.6,9.2,8.9c0,5.1-3.6,8.6-8.9,8.7c-5.5,0.1-9.3-3.6-9.2-8.9
		C326.5,105.4,330.2,101.7,335.3,101.7z M341.3,110.3c-0.3-3.6-2.2-5.9-6-5.8c-3.7,0.1-5.6,2.4-5.6,6.2c0.1,3.8,2.1,5.9,5.9,5.9
		C339.5,116.4,341.1,114,341.3,110.3z"/>
	<path class="st0" d="M627.8,113.8c1.1,1.5,2.3,3.1,3.4,4.6c-0.3,0.4-0.6,0.8-1,1.2c-3.1-2.3-6.2-4.5-9.9-7.2
		c-0.5,3-0.8,4.7-1.1,6.5c-2.8-1.7-3.5-8.6-1.8-16.8c4.4,0.1,9.7-2.1,12.6,2.7c1.2,2-0.5,5.7-0.9,8.6
		C628.7,113.6,628.2,113.7,627.8,113.8z M620.1,111.1c2.7-0.7,5-1.2,7.2-2.1c0.3-0.1,0.3-2.8-0.1-2.9c-2.2-0.8-4.5-1.2-7.1-1.8
		C620.1,106.9,620.1,108.5,620.1,111.1z"/>
	<path class="st0" d="M443.9,110.7c0-5.5,3.5-9.1,9-9c5.2,0,8.9,3.5,8.9,8.6c0.1,5.4-3.6,9-9.1,9C447.3,119.3,443.9,116,443.9,110.7
		z M452.7,116.6c4-0.2,5.9-2.6,5.9-6.1c0-3.5-2-6.1-5.9-6c-3.8,0.1-5.8,2.4-5.8,6.1C446.9,114.2,449,116.3,452.7,116.6z"/>
	<path class="st0" d="M562,110.7c0-5.5,3.5-9,9-9c5.3,0,8.8,3.4,8.8,8.7c0.1,5.4-3.5,9-9,9C565.5,119.3,562.1,115.9,562,110.7z
		 M577,110.4c-0.6-3.6-2.2-6.1-6.1-6c-3.9,0.1-5.8,2.6-5.8,6.2c0.1,3.6,2.1,6,6,5.9C575,116.4,576.5,113.9,577,110.4z"/>
	<path class="st0" d="M592.4,102c0.2,1.4,0.6,2.9,0.7,4.3c0.2,2-0.4,4.3,0.4,5.9c0.9,1.8,3,2.9,4.6,4.3c1.4-1.7,3.6-3.2,4.1-5.1
		c0.7-2.9,0.2-6.2,0.8-9.2c3.3,2.8,3.4,11.7,0.9,14.6c-2.8,3.2-6.4,3.4-10,1.6C589.8,116.3,588.6,109.3,592.4,102z"/>
	<path class="st0" d="M357.8,101.2c0,4.1,0,7,0,10c0.1,3,1.3,5.3,4.6,5.3c3.3,0,4.5-2.4,4.5-5.4c0.1-3,0-6,0-10.2
		c3.8,4.1,3.6,13.9,0.9,16.5c-3,2.7-8.6,2.5-11.3-0.4C354,114.1,354.1,104.6,357.8,101.2z"/>
	<path class="st0" d="M552.1,102.4c-2.5,5.6-5,11.1-7.4,16.3c-2.3-5.5-4.6-10.9-6.9-16.5c4.5-1.2,4,4.4,6.9,5.7
		c2.2-2.1,4.5-4.3,6.8-6.4C551.7,101.8,551.9,102.1,552.1,102.4z"/>
	<path class="st0" d="M713.9,101.3c2.1,2.3,4.3,4.5,6.3,6.7c2.1-2.2,4.3-4.5,6.5-6.7c0.3,0.3,0.6,0.6,0.9,0.9
		c-2.5,5.4-4.9,10.8-7.7,17c-0.7-2.9-1.1-5.9-2.3-8.5c-1.3-2.8-3.4-5.2-5.1-7.8C712.9,102.3,713.4,101.8,713.9,101.3z"/>
	<path class="st0" d="M303.1,101.4c2.1,2.2,4.1,4.3,6.3,6.6c2.1-2.1,4.3-4.4,6.6-6.6c0.3,0.3,0.5,0.6,0.8,0.9
		c-2.5,5.4-5,10.7-7.7,16.7c-0.7-2.7-1-5.6-2.2-8.2c-1.3-2.8-3.4-5.2-5.1-7.8C302.2,102.4,302.7,101.9,303.1,101.4z"/>
</g>
</svg>
