<svg width="34" height="34" viewBox="0 0 34 34" fill="none" xmlns="http://www.w3.org/2000/svg">
<path d="M24.8479 1.32139C24.8479 0.281401 23.6835 0.281389 23.166 0.411387C23.8905 -0.160608 24.7401 -0.0219247 25.042 0.151402L32.0387 3.58211C32.7053 3.909 33.1282 4.58916 33.1282 5.33454V27.9035C33.1282 28.6589 32.6941 29.3463 32.0139 29.6679L25.4302 32.7811C24.9773 32.9759 23.994 33.457 23.166 32.7809C24.2011 32.976 24.7617 32.2394 24.8479 31.741V1.32139Z" fill="url(#paint0_linear_1_148)"/>
<path d="M23.2513 0.391666C23.8006 0.28313 24.8494 0.333464 24.8494 1.32042V9.08895L3.63668 25.1364C3.2659 25.417 2.74408 25.3703 2.42827 25.0286L0.242003 22.6629C-0.100496 22.2924 -0.0765322 21.7122 0.295355 21.3715L23.1673 0.410419L23.2513 0.391666Z" fill="url(#paint1_linear_1_148)"/>
<path d="M24.8494 24.418L3.63668 8.37053C3.2659 8.09003 2.74408 8.13658 2.42827 8.47831L0.242003 10.844C-0.100496 11.2146 -0.0765322 11.7947 0.295355 12.1356L23.1673 33.0966C24.2024 33.2916 24.7631 32.5549 24.8494 32.0565V24.418Z" fill="url(#paint2_linear_1_148)"/>
<defs>
<linearGradient id="paint0_linear_1_148" x1="28.1472" y1="3.22854e-08" x2="28.1472" y2="33.1296" gradientUnits="userSpaceOnUse">
<stop stop-color="#32B5F1"/>
<stop offset="1" stop-color="#2B9FED"/>
</linearGradient>
<linearGradient id="paint1_linear_1_148" x1="24.8494" y1="4.18037" x2="1.20888" y2="24.024" gradientUnits="userSpaceOnUse">
<stop stop-color="#0F6FB3"/>
<stop offset="0.270551" stop-color="#1279B7"/>
<stop offset="0.421376" stop-color="#1176B5"/>
<stop offset="0.618197" stop-color="#0E69AC"/>
<stop offset="0.855344" stop-color="#0F70AF"/>
<stop offset="1" stop-color="#0F6DAD"/>
</linearGradient>
<linearGradient id="paint2_linear_1_148" x1="1.36686" y1="9.76183" x2="24.9408" y2="29.281" gradientUnits="userSpaceOnUse">
<stop stop-color="#1791D2"/>
<stop offset="1" stop-color="#1173C5"/>
</linearGradient>
</defs>
</svg>
